<?xml version="1.0" encoding="UTF-8" standalone="no"?>
<!DOCTYPE svg PUBLIC "-//W3C//DTD SVG 1.1//EN" "http://www.w3.org/Graphics/SVG/1.1/DTD/svg11.dtd">
<svg width="100%" height="100%" viewBox="0 0 650 650" version="1.1" xmlns="http://www.w3.org/2000/svg" xmlns:xlink="http://www.w3.org/1999/xlink" xml:space="preserve" xmlns:serif="http://www.serif.com/" style="fill-rule:evenodd;clip-rule:evenodd;stroke-linejoin:round;stroke-miterlimit:2;">
    <g transform="matrix(1,0,0,1,-16642.437987,-4855.937987)">
        <g transform="matrix(1,0,0,1.790072,16901,956.464323)">
            <g transform="matrix(0.707107,0.395016,-1.265772,0.707107,3006.175224,665.069394)">
                <g transform="matrix(1,0,0,0.558637,-14939.5,-308.626805)">
                    <path d="M15110.443,4547C15179.234,4547 15235,4602.766 15235,4671.557L15235,4881.443C15235,4950.234 15179.234,5006 15110.443,5006L14900.557,5006C14831.766,5006 14776,4950.234 14776,4881.443L14776,4671.557C14776,4602.766 14831.766,4547 14900.557,4547L15110.443,4547ZM15110.443,4597L14900.557,4597C14859.38,4597 14826,4630.38 14826,4671.557L14826,4881.443C14826,4922.62 14859.38,4956 14900.557,4956L15110.443,4956C15151.62,4956 15185,4922.62 15185,4881.443L15185,4671.557C15185,4630.38 15151.62,4597 15110.443,4597Z"/>
                </g>
                <g transform="matrix(0.262049,0,0,0.14639,-3933.74071,1695.429803)">
                    <circle cx="14992.5" cy="4808.5" r="155.5"/>
                    <path d="M14992.5,4653C15078.323,4653 15148,4722.677 15148,4808.5C15148,4894.323 15078.323,4964 14992.5,4964C14906.677,4964 14837,4894.323 14837,4808.5C14837,4722.677 14906.677,4653 14992.5,4653ZM14992.5,4907.405C15047.087,4907.405 15091.405,4863.087 15091.405,4808.5C15091.405,4753.913 15047.087,4709.595 14992.5,4709.595C14937.913,4709.595 14893.595,4753.913 14893.595,4808.5C14893.595,4863.087 14937.913,4907.405 14992.5,4907.405Z"/>
                </g>
                <g transform="matrix(0.262049,0,0,0.14639,-3791.801675,1695.429803)">
                    <circle cx="14992.5" cy="4808.5" r="155.5"/>
                    <path d="M14992.5,4653C15078.323,4653 15148,4722.677 15148,4808.5C15148,4894.323 15078.323,4964 14992.5,4964C14906.677,4964 14837,4894.323 14837,4808.5C14837,4722.677 14906.677,4653 14992.5,4653ZM14992.5,4907.405C15047.087,4907.405 15091.405,4863.087 15091.405,4808.5C15091.405,4753.913 15047.087,4709.595 14992.5,4709.595C14937.913,4709.595 14893.595,4753.913 14893.595,4808.5C14893.595,4863.087 14937.913,4907.405 14992.5,4907.405Z"/>
                </g>
                <g transform="matrix(0.262049,0,0,0.14639,-3933.74071,1616.13746)">
                    <circle cx="14992.5" cy="4808.5" r="155.5"/>
                    <path d="M14992.5,4653C15078.323,4653 15148,4722.677 15148,4808.5C15148,4894.323 15078.323,4964 14992.5,4964C14906.677,4964 14837,4894.323 14837,4808.5C14837,4722.677 14906.677,4653 14992.5,4653ZM14992.5,4907.405C15047.087,4907.405 15091.405,4863.087 15091.405,4808.5C15091.405,4753.913 15047.087,4709.595 14992.5,4709.595C14937.913,4709.595 14893.595,4753.913 14893.595,4808.5C14893.595,4863.087 14937.913,4907.405 14992.5,4907.405Z"/>
                </g>
                <g transform="matrix(0.262049,0,0,0.14639,-3791.801675,1616.13746)">
                    <circle cx="14992.5" cy="4808.5" r="155.5"/>
                    <path d="M14992.5,4653C15078.323,4653 15148,4722.677 15148,4808.5C15148,4894.323 15078.323,4964 14992.5,4964C14906.677,4964 14837,4894.323 14837,4808.5C14837,4722.677 14906.677,4653 14992.5,4653ZM14992.5,4907.405C15047.087,4907.405 15091.405,4863.087 15091.405,4808.5C15091.405,4753.913 15047.087,4709.595 14992.5,4709.595C14937.913,4709.595 14893.595,4753.913 14893.595,4808.5C14893.595,4863.087 14937.913,4907.405 14992.5,4907.405Z"/>
                </g>
            </g>
        </g>
    </g>
</svg>
