<?xml version="1.0" encoding="UTF-8" standalone="no"?>
<!DOCTYPE svg PUBLIC "-//W3C//DTD SVG 1.1//EN" "http://www.w3.org/Graphics/SVG/1.1/DTD/svg11.dtd">
<svg width="100%" height="100%" viewBox="0 0 910 910" version="1.1" xmlns="http://www.w3.org/2000/svg" xmlns:xlink="http://www.w3.org/1999/xlink" xml:space="preserve" xmlns:serif="http://www.serif.com/" style="fill-rule:evenodd;clip-rule:evenodd;stroke-linejoin:round;stroke-miterlimit:2;">
    <g transform="matrix(4.166667,0,0,4.166667,0,0)">
        <path d="M74.666,2.997C78.066,1.034 81.922,0.001 85.847,0.001L132.322,-0C136.247,-0 140.102,1.034 143.502,2.997L183.75,26.233C187.149,28.196 189.972,31.019 191.934,34.418L215.172,74.666C217.134,78.066 218.168,81.922 218.168,85.847L218.167,132.322C218.167,136.247 217.134,140.103 215.172,143.502L191.934,183.75C189.972,187.149 187.149,189.972 183.75,191.934L143.502,215.172C140.102,217.134 136.246,218.168 132.321,218.168L85.847,218.167C81.922,218.167 78.065,217.135 74.666,215.172L34.418,191.934C31.019,189.972 28.196,187.149 26.234,183.75L2.996,143.502C1.034,140.102 0.001,136.246 0.001,132.321L0,85.847C0,81.922 1.034,78.066 2.996,74.666L26.233,34.418C28.196,31.019 31.019,28.196 34.418,26.234L74.666,2.997ZM85.847,4.473C82.707,4.473 79.622,5.299 76.903,6.869L36.654,30.107C33.935,31.677 31.676,33.935 30.106,36.654L6.869,76.903C5.299,79.622 4.472,82.707 4.472,85.847L4.473,132.322L4.475,132.616C4.525,135.654 5.348,138.631 6.869,141.266L30.106,181.514C31.676,184.233 33.935,186.492 36.654,188.062L76.902,211.299C79.622,212.869 82.707,213.695 85.847,213.695L132.322,213.696C135.462,213.696 138.546,212.869 141.266,211.299L181.514,188.062C184.233,186.492 186.491,184.233 188.061,181.514L211.299,141.266C212.869,138.546 213.695,135.461 213.695,132.321L213.696,85.847C213.696,82.805 212.92,79.815 211.444,77.159L211.299,76.903L188.061,36.654C186.491,33.935 184.233,31.677 181.514,30.106L141.265,6.869C138.546,5.299 135.461,4.473 132.321,4.473L85.847,4.473Z" style="fill:rgb(0,85,68);fill-opacity:0.76;fill-rule:nonzero;"/>
    </g>
</svg>
