<?xml version="1.0" encoding="UTF-8" standalone="no"?><!DOCTYPE svg PUBLIC "-//W3C//DTD SVG 1.1//EN" "http://www.w3.org/Graphics/SVG/1.1/DTD/svg11.dtd"><svg width="100%" height="100%" viewBox="0 0 219 219" version="1.1" xmlns="http://www.w3.org/2000/svg" xmlns:xlink="http://www.w3.org/1999/xlink" xml:space="preserve" xmlns:serif="http://www.serif.com/" style="fill-rule:evenodd;clip-rule:evenodd;stroke-linejoin:round;stroke-miterlimit:2;"><path d="M74.666,2.997c3.4,-1.963 7.256,-2.996 11.181,-2.996l46.475,-0.001c3.925,0 7.78,1.034 11.18,2.997l40.248,23.236c3.399,1.963 6.222,4.786 8.184,8.185l23.238,40.248c1.962,3.4 2.996,7.256 2.996,11.181l-0.001,46.475c0,3.925 -1.033,7.781 -2.995,11.18l-23.238,40.248c-1.962,3.399 -4.785,6.222 -8.184,8.184l-40.248,23.238c-3.4,1.962 -7.256,2.996 -11.181,2.996l-46.474,-0.001c-3.925,0 -7.782,-1.032 -11.181,-2.995l-40.248,-23.238c-3.399,-1.962 -6.222,-4.785 -8.184,-8.184l-23.238,-40.248c-1.962,-3.4 -2.995,-7.256 -2.995,-11.181l-0.001,-46.474c0,-3.925 1.034,-7.781 2.996,-11.181l23.237,-40.248c1.963,-3.399 4.786,-6.222 8.185,-8.184l40.248,-23.237Zm11.181,1.476c-3.14,0 -6.225,0.826 -8.944,2.396l-40.249,23.238c-2.719,1.57 -4.978,3.828 -6.548,6.547l-23.237,40.249c-1.57,2.719 -2.397,5.804 -2.397,8.944l0.001,46.475l0.002,0.294c0.05,3.038 0.873,6.015 2.394,8.65l23.237,40.248c1.57,2.719 3.829,4.978 6.548,6.548l40.248,23.237c2.72,1.57 5.805,2.396 8.945,2.396l46.475,0.001c3.14,0 6.224,-0.827 8.944,-2.397l40.248,-23.237c2.719,-1.57 4.977,-3.829 6.547,-6.548l23.238,-40.248c1.57,-2.72 2.396,-5.805 2.396,-8.945l0.001,-46.474c0,-3.042 -0.776,-6.032 -2.252,-8.688l-0.145,-0.256l-23.238,-40.249c-1.57,-2.719 -3.828,-4.977 -6.547,-6.548l-40.249,-23.237c-2.719,-1.57 -5.804,-2.396 -8.944,-2.396l-46.474,0Z" style="fill:#054;fill-opacity:0.76;fill-rule:nonzero;"/></svg>