<?xml version="1.0" encoding="UTF-8" standalone="no"?><!DOCTYPE svg PUBLIC "-//W3C//DTD SVG 1.1//EN" "http://www.w3.org/Graphics/SVG/1.1/DTD/svg11.dtd"><svg width="100%" height="100%" viewBox="0 0 219 219" version="1.1" xmlns="http://www.w3.org/2000/svg" xmlns:xlink="http://www.w3.org/1999/xlink" xml:space="preserve" xmlns:serif="http://www.serif.com/" style="fill-rule:evenodd;clip-rule:evenodd;"><g><path d="M79.979,15.729c2.494,-1.44 5.324,-2.199 8.205,-2.199l42.635,0c2.881,0 5.711,0.759 8.206,2.199l36.923,21.318c2.495,1.44 4.566,3.512 6.007,6.006l21.317,36.924c1.441,2.495 2.199,5.324 2.199,8.205l0,42.636c0,2.88 -0.758,5.71 -2.199,8.205l-21.317,36.923c-1.441,2.495 -3.512,4.567 -6.007,6.007l-36.923,21.318c-2.495,1.44 -5.325,2.198 -8.206,2.198l-42.635,0c-2.881,0 -5.711,-0.758 -8.205,-2.198l-36.924,-21.318c-2.495,-1.44 -4.566,-3.512 -6.007,-6.007l-21.317,-36.923c-1.441,-2.495 -2.199,-5.325 -2.199,-8.205l0,-42.636c0,-2.881 0.758,-5.71 2.199,-8.205l21.317,-36.924c1.441,-2.494 3.512,-4.566 6.007,-6.006l36.924,-21.318Z" style="fill:#038f7b;fill-opacity:0.2;fill-rule:nonzero;"/><path d="M79.729,15.296c2.57,-1.484 5.486,-2.265 8.454,-2.265l42.637,0c2.968,0 5.884,0.781 8.454,2.265l36.924,21.318c2.571,1.484 4.706,3.619 6.19,6.19l21.317,36.923c1.484,2.571 2.266,5.486 2.266,8.455l0.001,42.636c-0.001,2.968 -0.782,5.884 -2.266,8.455l-21.319,36.924c-1.484,2.57 -3.618,4.705 -6.189,6.189l-36.924,21.318c-2.571,1.484 -5.486,2.265 -8.455,2.265l-42.635,0.001c-2.968,0 -5.885,-0.782 -8.455,-2.266l-36.924,-21.318c-2.57,-1.485 -4.705,-3.619 -6.189,-6.189l-21.319,-36.925c-1.484,-2.57 -2.265,-5.486 -2.265,-8.454l0,-42.636c0,-2.968 0.782,-5.885 2.266,-8.455l21.318,-36.923c1.484,-2.571 3.619,-4.706 6.189,-6.19l36.924,-21.318Z" style="fill:none;fill-rule:nonzero;stroke:#038f7b;stroke-opacity:0.52;stroke-width:1px;"/><path d="M77.014,9.366c3.209,-1.853 6.848,-2.828 10.553,-2.828l43.867,0c3.704,0 7.344,0.975 10.552,2.828l37.99,21.933c3.208,1.852 5.873,4.517 7.725,7.725l21.934,37.99c1.852,3.208 2.827,6.848 2.827,10.552l0,43.867c0,3.705 -0.975,7.345 -2.827,10.553l-21.934,37.99c-1.852,3.208 -4.517,5.872 -7.725,7.725l-37.99,21.933c-3.208,1.853 -6.848,2.828 -10.552,2.828l-43.867,0c-3.705,0 -7.345,-0.975 -10.553,-2.828l-37.989,-21.933c-3.209,-1.853 -5.873,-4.517 -7.726,-7.725l-21.933,-37.99c-1.852,-3.209 -2.827,-6.848 -2.827,-10.553l-0.001,-43.866c0,-3.705 0.976,-7.345 2.828,-10.553l21.933,-37.99c1.853,-3.208 4.517,-5.873 7.726,-7.725l37.989,-21.933Zm10.553,1.393c-2.964,0 -5.875,0.781 -8.442,2.262l-37.99,21.933c-2.567,1.482 -4.698,3.614 -6.18,6.181l-21.934,37.989c-1.481,2.567 -2.262,5.479 -2.262,8.443l0.001,43.866l0.002,0.278c0.047,2.868 0.824,5.678 2.26,8.164l21.933,37.99c1.482,2.567 3.613,4.698 6.18,6.18l37.99,21.934c2.566,1.481 5.478,2.262 8.442,2.262l43.867,0c2.964,0 5.875,-0.78 8.442,-2.262l37.989,-21.934c2.567,-1.482 4.699,-3.613 6.181,-6.18l21.933,-37.99c1.482,-2.566 2.262,-5.478 2.262,-8.442l0,-43.866c0,-2.872 -0.732,-5.694 -2.125,-8.201l-0.137,-0.241l-21.934,-37.99c-1.481,-2.567 -3.613,-4.699 -6.18,-6.181l-37.989,-21.933c-2.567,-1.482 -5.479,-2.262 -8.443,-2.262l-43.866,0Z" style="fill:#054;fill-rule:nonzero;"/><path d="M89.502,197c0,1.381 -1.12,2.5 -2.5,2.5c-1.381,0 -2.5,-1.119 -2.5,-2.5c0,-1.381 1.119,-2.5 2.5,-2.5c1.38,0 2.5,1.119 2.5,2.5Z" style="fill:#054;fill-rule:nonzero;"/><path d="M100.864,199.5c-1.064,0 -1.882,-0.295 -2.453,-0.886c-0.572,-0.6 -0.858,-1.422 -0.858,-2.466l1.582,0c0.01,0.542 0.148,0.999 0.414,1.373c0.266,0.374 0.699,0.561 1.3,0.561c0.582,0 0.995,-0.182 1.242,-0.546c0.256,-0.364 0.384,-0.817 0.384,-1.358l0,-7.191l1.567,0l0,7.191c0,1.063 -0.281,1.885 -0.843,2.466c-0.561,0.57 -1.34,0.856 -2.335,0.856Z" style="fill-rule:nonzero;"/><path d="M105.573,199.323l3.089,-10.336l1.862,0l3.089,10.336l-1.699,0l-0.695,-2.481l-3.252,0l-0.694,2.481l-1.7,0Zm3.976,-8.121l-1.227,4.385l2.542,0l-1.226,-4.385l-0.089,0Z" style="fill-rule:nonzero;"/><path d="M114.775,199.323l0,-10.336l1.537,0l4.331,7.575l0,-7.575l1.493,0l0,10.336l-1.537,0l-4.331,-7.575l0,7.575l-1.493,0Z" style="fill-rule:nonzero;"/><path d="M181.127,165.362l-8.96,-5.167l0.828,-1.433l5.116,0.479l-2.973,-4.187l0.828,-1.432l8.959,5.168l-0.746,1.291l-6.374,-3.676l2.357,3.303l-0.621,1.074l-4.029,-0.38l6.361,3.669l-0.746,1.291Z" style="fill-rule:nonzero;"/><path d="M185.447,157.887l-7.415,-7.84l0.931,-1.612l10.504,2.496l-0.849,1.47l-2.498,-0.639l-1.626,2.813l1.803,1.841l-0.85,1.471Zm-5.052,-7.5l3.188,3.254l1.272,-2.2l-4.415,-1.131l-0.045,0.077Z" style="fill-rule:nonzero;"/><path d="M190.226,149.619l-8.96,-5.168l1.692,-2.929c0.404,-0.699 0.856,-1.205 1.356,-1.519c0.505,-0.323 1.026,-0.477 1.564,-0.462c0.534,0.001 1.057,0.149 1.569,0.445c0.581,0.334 1.011,0.781 1.29,1.341c0.277,0.545 0.342,1.18 0.197,1.903l4.824,0.276l-0.909,1.573l-4.536,-0.331l-0.85,1.47l3.546,2.045l-0.783,1.356Zm-3.991,-4.11l0.864,-1.496c0.355,-0.613 0.477,-1.14 0.367,-1.579c-0.106,-0.447 -0.381,-0.799 -0.824,-1.055c-0.453,-0.26 -0.892,-0.326 -1.319,-0.198c-0.436,0.124 -0.836,0.501 -1.201,1.132l-0.857,1.484l2.97,1.712Z" style="fill-rule:nonzero;"/><path d="M118.317,19.5c1.064,0 1.882,0.295 2.453,0.886c0.572,0.6 0.857,1.422 0.857,2.466l-1.581,0c-0.01,-0.542 -0.148,-0.999 -0.414,-1.373c-0.266,-0.375 -0.7,-0.562 -1.301,-0.562c-0.581,0 -0.995,0.183 -1.241,0.547c-0.256,0.364 -0.384,0.817 -0.384,1.358l0,7.191l-1.567,0l0,-7.191c0,-1.063 0.281,-1.885 0.842,-2.466c0.562,-0.571 1.34,-0.856 2.336,-0.856Z" style="fill-rule:nonzero;"/><path d="M109.617,19.5c0.7,0 1.325,0.143 1.877,0.428c0.542,0.286 0.971,0.719 1.286,1.3c0.315,0.59 0.473,1.333 0.473,2.229l0,6.556l-1.567,0l0,-6.644c0,-0.788 -0.187,-1.398 -0.561,-1.832c-0.375,-0.423 -0.887,-0.634 -1.538,-0.634c-0.65,0 -1.162,0.211 -1.537,0.634c-0.374,0.434 -0.561,1.044 -0.561,1.831l0,6.645l-1.567,0l0,-6.556c0,-0.896 0.163,-1.639 0.488,-2.229c0.325,-0.581 0.768,-1.014 1.33,-1.3c0.552,-0.285 1.177,-0.428 1.877,-0.428Z" style="fill-rule:nonzero;"/><path d="M103.962,19.677l0,10.336l-1.567,0l0,-8.933l-5.099,0l0,-1.403l6.666,0Z" style="fill-rule:nonzero;"/><path d="M144.109,193.309l-5.173,-8.951l5.747,-3.315l0.732,1.266l-4.391,2.532l1.582,2.737l3.686,-2.127l0.687,1.19l-3.686,2.126l2.173,3.759l-1.357,0.783Z" style="fill-rule:nonzero;"/><path d="M151.733,188.912l-5.173,-8.951l5.721,-3.301l0.702,1.215l-4.365,2.518l1.508,2.608l3.981,-2.296l0.694,1.202l-3.98,2.296l1.566,2.711l4.365,-2.517l0.702,1.214l-5.721,3.301Z" style="fill-rule:nonzero;"/><path d="M159.1,184.662l-5.173,-8.951l3.2,-1.846c0.93,-0.536 1.758,-0.729 2.482,-0.578c0.724,0.15 1.281,0.562 1.67,1.236c0.3,0.52 0.408,1.02 0.322,1.502c-0.086,0.481 -0.266,0.898 -0.541,1.249l0.052,0.09c0.515,-0.093 1.027,-0.053 1.537,0.119c0.504,0.164 0.919,0.527 1.244,1.09c0.266,0.46 0.394,0.949 0.386,1.465c-0.005,0.503 -0.161,0.991 -0.468,1.464c-0.308,0.473 -0.777,0.891 -1.408,1.255l-3.303,1.905Zm-1.658,-6l1.677,-0.967c0.52,-0.3 0.858,-0.631 1.013,-0.993c0.15,-0.371 0.101,-0.769 -0.145,-1.196c-0.488,-0.844 -1.273,-0.953 -2.357,-0.328l-1.651,0.952l1.463,2.532Zm2.291,3.964l1.766,-1.019c0.555,-0.319 0.913,-0.685 1.073,-1.096c0.161,-0.411 0.108,-0.846 -0.158,-1.307c-0.261,-0.452 -0.618,-0.706 -1.072,-0.762c-0.458,-0.065 -0.957,0.057 -1.494,0.367l-1.741,1.004l1.626,2.813Z" style="fill-rule:nonzero;"/><path d="M199.502,122.367l-10.346,-3.086l0,-1.861l10.346,-3.086l0,1.698l-2.483,0.694l0,3.249l2.483,0.694l0,1.698Zm-8.129,-3.972l4.389,1.225l0,-2.539l-4.389,1.225l0,0.089Z" style="fill-rule:nonzero;"/><path d="M199.502,112.878l-10.346,0l0,-3.499c0,-0.788 0.138,-1.437 0.414,-1.949c0.266,-0.512 0.635,-0.891 1.108,-1.137c0.473,-0.246 1.015,-0.369 1.626,-0.369c0.611,0 1.153,0.123 1.626,0.369c0.473,0.246 0.847,0.625 1.123,1.137c0.266,0.512 0.399,1.161 0.399,1.949l0,1.934l4.05,0l0,1.565Zm-5.454,-1.565l0,-1.86c0,-0.67 -0.158,-1.157 -0.473,-1.462c-0.315,-0.315 -0.739,-0.473 -1.271,-0.473c-0.522,0 -0.941,0.158 -1.256,0.473c-0.326,0.305 -0.488,0.792 -0.488,1.462l0,1.86l3.488,0Z" style="fill-rule:nonzero;"/><path d="M199.502,103.966l-10.346,0l0,-3.381c0,-0.808 0.138,-1.472 0.414,-1.994c0.275,-0.531 0.65,-0.925 1.123,-1.181c0.463,-0.266 0.99,-0.399 1.581,-0.399c0.67,0 1.266,0.173 1.789,0.517c0.512,0.335 0.886,0.852 1.123,1.55l4.316,-2.17l0,1.816l-4.094,1.979l0,1.698l4.094,0l0,1.565Zm-5.513,-1.565l0,-1.728c0,-0.709 -0.158,-1.225 -0.473,-1.55c-0.316,-0.335 -0.729,-0.502 -1.242,-0.502c-0.522,0 -0.936,0.162 -1.241,0.487c-0.316,0.325 -0.473,0.851 -0.473,1.58l0,1.713l3.429,0Z" style="fill-rule:nonzero;"/><path d="M162.192,35.917c0.921,0.531 1.482,1.195 1.681,1.992c0.195,0.806 0.031,1.66 -0.492,2.564l-1.369,-0.79c0.262,-0.474 0.372,-0.939 0.329,-1.396c-0.043,-0.457 -0.325,-0.835 -0.846,-1.136c-0.503,-0.29 -0.953,-0.339 -1.348,-0.147c-0.405,0.188 -0.742,0.516 -1.013,0.985l-3.599,6.227l-1.357,-0.782l3.599,-6.228c0.532,-0.92 1.187,-1.492 1.964,-1.714c0.772,-0.214 1.589,-0.073 2.451,0.425Z" style="fill-rule:nonzero;"/><path d="M154.658,31.571c0.606,0.349 1.076,0.786 1.411,1.308c0.326,0.518 0.481,1.108 0.463,1.768c-0.022,0.669 -0.258,1.391 -0.706,2.167l-3.281,5.678l-1.357,-0.783l3.326,-5.754c0.394,-0.682 0.537,-1.304 0.429,-1.866c-0.112,-0.554 -0.45,-0.993 -1.013,-1.318c-0.563,-0.325 -1.113,-0.398 -1.649,-0.218c-0.541,0.188 -1.008,0.623 -1.403,1.305l-3.325,5.754l-1.357,-0.782l3.281,-5.678c0.449,-0.776 0.961,-1.338 1.539,-1.687c0.572,-0.341 1.173,-0.494 1.802,-0.461c0.621,0.029 1.234,0.218 1.84,0.567Z" style="fill-rule:nonzero;"/><path d="M150.056,29.121l-5.173,8.951l-1.331,-0.768l0.04,-8.723l-3.791,6.56l-1.293,-0.745l5.173,-8.951l1.332,0.767l-0.041,8.723l3.791,-6.56l1.293,0.746Z" style="fill-rule:nonzero;"/><path d="M193.785,75.54l-8.96,5.167l-0.828,-1.432l2.973,-4.187l-5.116,0.479l-0.828,-1.432l8.96,-5.168l0.747,1.292l-6.375,3.676l4.043,-0.388l0.621,1.074l-2.345,3.296l6.361,-3.669l0.747,1.292Z" style="fill-rule:nonzero;"/><path d="M189.464,68.064l-10.504,2.495l-0.931,-1.611l7.415,-7.84l0.85,1.47l-1.803,1.842l1.626,2.813l2.498,-0.639l0.849,1.47Zm-9.027,0.621l4.415,-1.131l-1.271,-2.2l-3.189,3.254l0.045,0.077Z" style="fill-rule:nonzero;"/><path d="M183.415,57.596l-3.405,1.964l-3.848,6.158l-0.894,-1.547l2.917,-4.462l-5.326,0.293l-0.894,-1.547l7.262,-0.25l3.405,-1.964l0.783,1.355Z" style="fill-rule:nonzero;"/><path d="M35.949,56.925c0.365,-0.631 0.8,-1.119 1.307,-1.463c0.501,-0.336 1.044,-0.518 1.628,-0.545c0.579,-0.018 1.166,0.139 1.76,0.47l-0.828,1.432c-0.457,-0.252 -0.934,-0.323 -1.431,-0.211c-0.493,0.124 -0.897,0.459 -1.212,1.005c-0.291,0.503 -0.402,0.962 -0.335,1.376c0.077,0.419 0.303,0.737 0.678,0.953c0.316,0.183 0.625,0.247 0.929,0.195c0.306,-0.039 0.642,-0.186 1.006,-0.442c0.373,-0.251 0.809,-0.602 1.308,-1.053c0.668,-0.604 1.312,-0.96 1.932,-1.068c0.628,-0.104 1.25,0.022 1.864,0.376c0.709,0.408 1.133,0.994 1.272,1.756c0.14,0.763 -0.049,1.592 -0.566,2.487c-0.503,0.869 -1.133,1.438 -1.891,1.706c-0.749,0.272 -1.525,0.188 -2.329,-0.252l0.835,-1.445c0.214,0.123 0.453,0.181 0.718,0.175c0.274,-0.001 0.539,-0.076 0.795,-0.224c0.265,-0.142 0.491,-0.376 0.678,-0.7c0.24,-0.396 0.336,-0.789 0.289,-1.18c-0.038,-0.386 -0.228,-0.677 -0.57,-0.874c-0.418,-0.241 -0.842,-0.264 -1.273,-0.07c-0.423,0.2 -0.975,0.603 -1.656,1.211c-0.424,0.38 -0.851,0.685 -1.28,0.915c-0.425,0.244 -0.867,0.369 -1.327,0.377c-0.456,0.021 -0.944,-0.118 -1.465,-0.418c-0.478,-0.276 -0.844,-0.646 -1.098,-1.112c-0.246,-0.46 -0.354,-0.982 -0.323,-1.567c0.025,-0.576 0.221,-1.18 0.585,-1.81Z" style="fill-rule:nonzero;"/><path d="M33.349,61.778l8.96,5.168l-3.303,5.716l-1.216,-0.702l2.52,-4.36l-2.611,-1.506l-2.299,3.976l-1.203,-0.694l2.298,-3.976l-2.713,-1.565l-2.52,4.36l-1.216,-0.701l3.303,-5.716Z" style="fill-rule:nonzero;"/><path d="M28.985,69.33l8.959,5.168l-1.751,3.03c-0.394,0.682 -0.839,1.176 -1.334,1.482c-0.486,0.31 -0.996,0.454 -1.529,0.431c-0.533,-0.024 -1.064,-0.188 -1.593,-0.493c-0.529,-0.305 -0.936,-0.682 -1.223,-1.132c-0.286,-0.449 -0.421,-0.964 -0.404,-1.545c0.026,-0.576 0.236,-1.206 0.63,-1.888l0.968,-1.675l-3.507,-2.023l0.784,-1.355Zm3.939,4.08l-0.931,1.611c-0.335,0.58 -0.442,1.08 -0.322,1.502c0.116,0.43 0.404,0.778 0.865,1.044c0.452,0.261 0.893,0.334 1.324,0.218c0.434,-0.101 0.819,-0.442 1.154,-1.022l0.931,-1.611l-3.021,-1.742Z" style="fill-rule:nonzero;"/><path d="M75.788,25.278l2.498,10.494l-1.612,0.93l-7.849,-7.408l1.472,-0.849l1.844,1.801l2.815,-1.624l-0.639,-2.495l1.471,-0.849Zm0.622,9.018l-1.133,-4.41l-2.201,1.27l3.257,3.185l0.077,-0.045Z" style="fill-rule:nonzero;"/><path d="M64.569,31.544c0.606,-0.349 1.219,-0.538 1.84,-0.566c0.612,-0.024 1.2,0.137 1.764,0.482c0.568,0.354 1.077,0.919 1.525,1.695l3.281,5.678l-1.356,0.782l-3.326,-5.754c-0.394,-0.682 -0.862,-1.117 -1.403,-1.305c-0.536,-0.18 -1.085,-0.107 -1.649,0.218c-0.563,0.325 -0.901,0.764 -1.013,1.317c-0.107,0.563 0.036,1.185 0.43,1.867l3.326,5.754l-1.357,0.782l-3.282,-5.677c-0.448,-0.776 -0.679,-1.501 -0.693,-2.175c-0.009,-0.665 0.158,-1.262 0.502,-1.789c0.335,-0.523 0.805,-0.959 1.411,-1.309Z" style="fill-rule:nonzero;"/><path d="M56.984,35.919c0.665,-0.384 1.358,-0.533 2.078,-0.449c0.726,0.094 1.429,0.404 2.109,0.933c0.681,0.528 1.294,1.265 1.841,2.211c0.537,0.929 0.865,1.82 0.982,2.673c0.118,0.853 0.027,1.621 -0.272,2.305c-0.302,0.698 -0.82,1.258 -1.554,1.681c-0.888,0.512 -1.741,0.68 -2.559,0.504c-0.827,-0.171 -1.557,-0.665 -2.188,-1.483l1.472,-0.849c0.351,0.412 0.751,0.67 1.198,0.775c0.44,0.111 0.885,0.035 1.338,-0.225c0.691,-0.399 1.047,-1.003 1.069,-1.811c0.023,-0.808 -0.267,-1.733 -0.868,-2.773c-0.626,-1.082 -1.298,-1.803 -2.017,-2.161c-0.723,-0.345 -1.395,-0.338 -2.018,0.022c-0.418,0.241 -0.693,0.564 -0.823,0.969c-0.13,0.404 -0.157,0.84 -0.08,1.308c0.081,0.476 0.231,0.941 0.448,1.395l1.882,-1.085l0.65,1.125l-3.251,1.875l-2.779,-4.808l1.254,-0.723l0.785,1.15l0.076,-0.044c-0.056,-0.491 -0.004,-0.952 0.156,-1.385c0.159,-0.433 0.516,-0.81 1.071,-1.13Z" style="fill-rule:nonzero;"/><path d="M19.502,100.649c0,-0.836 0.216,-1.56 0.65,-2.17c0.433,-0.61 1.049,-1.078 1.848,-1.403c0.798,-0.325 1.748,-0.487 2.852,-0.487c1.104,0 2.054,0.162 2.852,0.487c0.799,0.325 1.415,0.793 1.848,1.403c0.434,0.61 0.65,1.334 0.65,2.17c0,0.847 -0.216,1.57 -0.65,2.171c-0.433,0.61 -1.049,1.078 -1.848,1.403c-0.798,0.324 -1.748,0.487 -2.852,0.487c-1.104,0 -2.054,-0.163 -2.852,-0.487c-0.799,-0.325 -1.415,-0.793 -1.848,-1.403c-0.434,-0.601 -0.65,-1.324 -0.65,-2.171Zm1.478,0c0,0.739 0.33,1.334 0.99,1.787c0.67,0.453 1.631,0.679 2.882,0.679c1.251,0 2.207,-0.226 2.867,-0.679c0.67,-0.453 1.005,-1.048 1.005,-1.787c0,-0.748 -0.335,-1.348 -1.005,-1.801c-0.66,-0.443 -1.616,-0.664 -2.867,-0.664c-1.251,0 -2.212,0.221 -2.882,0.664c-0.66,0.453 -0.99,1.053 -0.99,1.801Z" style="fill-rule:nonzero;"/><path d="M19.502,109.532c0,-0.866 0.221,-1.604 0.665,-2.214c0.443,-0.601 1.064,-1.064 1.862,-1.388c0.808,-0.315 1.744,-0.473 2.808,-0.473c1.074,0 2.01,0.158 2.808,0.473c0.808,0.324 1.434,0.792 1.877,1.402c0.454,0.611 0.68,1.344 0.68,2.2c0,1.113 -0.305,1.999 -0.916,2.658c-0.601,0.66 -1.419,1.044 -2.454,1.152l0,-1.728c0.542,-0.088 0.991,-0.31 1.345,-0.664c0.365,-0.345 0.547,-0.822 0.547,-1.432c0,-0.778 -0.345,-1.383 -1.034,-1.817c-0.69,-0.433 -1.641,-0.649 -2.853,-0.649c-1.202,0 -2.148,0.216 -2.837,0.649c-0.68,0.434 -1.02,1.039 -1.02,1.817c0,0.63 0.162,1.112 0.487,1.447c0.335,0.334 0.774,0.551 1.316,0.649l0,1.728c-1.015,-0.158 -1.818,-0.556 -2.409,-1.196c-0.582,-0.64 -0.872,-1.511 -0.872,-2.614Z" style="fill-rule:nonzero;"/><path d="M19.679,117.574l8.942,0l0,-2.776l1.404,0l0,7.117l-1.404,0l0,-2.776l-8.942,0l0,-1.565Z" style="fill-rule:nonzero;"/><path d="M53.852,181.069l5.173,-8.951l2.15,1.241c1.442,0.831 2.282,1.85 2.518,3.055c0.242,1.196 -0.039,2.489 -0.842,3.879c-0.803,1.389 -1.786,2.283 -2.949,2.681c-1.158,0.389 -2.458,0.168 -3.9,-0.664l-2.15,-1.241Zm2.081,-0.47l0.742,0.428c1.041,0.601 1.96,0.744 2.756,0.43c0.8,-0.323 1.484,-0.974 2.051,-1.954c0.566,-0.981 0.787,-1.894 0.661,-2.739c-0.121,-0.854 -0.702,-1.581 -1.743,-2.182l-0.742,-0.428l-3.725,6.445Z" style="fill-rule:nonzero;"/><path d="M61.821,185.666l5.173,-8.951l5.722,3.3l-0.702,1.215l-4.365,-2.518l-1.508,2.609l3.981,2.296l-0.695,1.202l-3.98,-2.296l-1.567,2.711l4.365,2.517l-0.702,1.215l-5.722,-3.3Z" style="fill-rule:nonzero;"/><path d="M72.249,191.885c-0.751,-0.433 -1.28,-0.994 -1.587,-1.683c-0.299,-0.684 -0.39,-1.452 -0.272,-2.305c0.13,-0.856 0.462,-1.745 0.994,-2.666c0.537,-0.929 1.142,-1.66 1.814,-2.193c0.685,-0.537 1.403,-0.844 2.154,-0.923c0.756,-0.087 1.505,0.084 2.247,0.512c0.965,0.556 1.58,1.264 1.846,2.122c0.271,0.85 0.195,1.749 -0.228,2.698l-1.498,-0.863c0.194,-0.514 0.227,-1.012 0.097,-1.496c-0.117,-0.488 -0.439,-0.884 -0.968,-1.189c-0.675,-0.389 -1.372,-0.394 -2.092,-0.013c-0.72,0.38 -1.384,1.094 -1.99,2.143c-0.601,1.04 -0.886,1.966 -0.855,2.78c0.035,0.804 0.39,1.401 1.064,1.79c0.546,0.315 1.046,0.416 1.498,0.302c0.458,-0.123 0.865,-0.394 1.221,-0.814l1.498,0.864c-0.644,0.799 -1.391,1.295 -2.241,1.486c-0.846,0.183 -1.746,-0.001 -2.702,-0.552Z" style="fill-rule:nonzero;"/><path d="M25.455,143.562l8.96,-5.167l0.768,1.329l-4.401,7.534l6.567,-3.787l0.746,1.292l-8.96,5.168l-0.768,-1.33l4.401,-7.534l-6.567,3.787l-0.746,-1.292Z" style="fill-rule:nonzero;"/><path d="M31.573,154.502c-0.419,-0.724 -0.594,-1.459 -0.524,-2.204c0.07,-0.745 0.37,-1.458 0.898,-2.138c0.529,-0.68 1.271,-1.295 2.227,-1.847c0.956,-0.551 1.86,-0.885 2.714,-1.002c0.854,-0.118 1.621,-0.021 2.302,0.291c0.681,0.312 1.231,0.831 1.65,1.555c0.423,0.733 0.598,1.468 0.523,2.205c-0.07,0.745 -0.369,1.458 -0.898,2.138c-0.529,0.68 -1.271,1.295 -2.227,1.846c-0.955,0.552 -1.86,0.886 -2.714,1.003c-0.854,0.118 -1.621,0.02 -2.302,-0.292c-0.676,-0.303 -1.226,-0.821 -1.649,-1.555Zm1.28,-0.738c0.369,0.64 0.953,0.99 1.751,1.053c0.807,0.057 1.753,-0.227 2.836,-0.852c1.084,-0.625 1.798,-1.298 2.144,-2.02c0.353,-0.727 0.345,-1.41 -0.024,-2.049c-0.375,-0.648 -0.965,-1.001 -1.772,-1.058c-0.794,-0.054 -1.732,0.231 -2.816,0.856c-1.084,0.625 -1.805,1.297 -2.163,2.015c-0.346,0.722 -0.331,1.407 0.044,2.055Z" style="fill-rule:nonzero;"/><path d="M35.692,161.276l7.363,-7.93l0.843,1.457l-5.949,6.245l8.388,-2.025l0.842,1.458l-10.556,2.406l-0.931,-1.611Z" style="fill-rule:nonzero;"/></g></svg>