<svg width="275" height="275" viewBox="0 0 275 275" fill="none" xmlns="http://www.w3.org/2000/svg">
<path d="M107.825 43.575C110.319 42.1346 113.149 41.3764 116.03 41.3764L158.665 41.3764C161.546 41.3764 164.376 42.1346 166.871 43.575L203.794 64.8927C206.289 66.3331 208.36 68.4047 209.801 70.8994L231.118 107.823C232.559 110.318 233.317 113.147 233.317 116.028L233.317 158.664C233.317 161.544 232.559 164.374 231.118 166.869L209.801 203.792C208.36 206.287 206.289 208.359 203.794 209.799L166.871 231.117C164.376 232.557 161.546 233.315 158.665 233.315L116.03 233.315C113.149 233.315 110.319 232.557 107.825 231.117L70.901 209.799C68.4063 208.359 66.3347 206.287 64.8944 203.792L43.5766 166.869C42.1363 164.374 41.378 161.544 41.378 158.664L41.378 116.028C41.378 113.147 42.1363 110.318 43.5766 107.823L64.8944 70.8994C66.3347 68.4047 68.4063 66.3331 70.9011 64.8927L107.825 43.575Z" fill="#038F7B" fill-opacity="0.2"/>
<path d="M107.575 43.1419C110.145 41.6578 113.061 40.8765 116.029 40.8765L158.666 40.8765C161.634 40.8766 164.55 41.6583 167.12 43.1424L204.044 64.4597C206.615 65.9439 208.75 68.0789 210.234 70.6496L231.551 107.573C233.035 110.144 233.817 113.059 233.817 116.028L233.818 158.664C233.817 161.632 233.036 164.548 231.552 167.119L210.233 204.043C208.749 206.613 206.615 208.748 204.044 210.232L167.12 231.55C164.549 233.034 161.634 233.815 158.665 233.815L116.03 233.816C113.062 233.816 110.145 233.034 107.575 231.55L70.6514 210.232C68.0808 208.747 65.9459 206.613 64.4617 204.043L43.1434 167.118C41.6594 164.548 40.878 161.632 40.878 158.664L40.8783 116.028C40.8783 113.06 41.6598 110.143 43.144 107.573L64.4615 70.6498C65.9457 68.0791 68.0806 65.9441 70.6514 64.4599L107.575 43.1419Z" stroke="#038F7B" stroke-opacity="0.52"/>
<path d="M104.86 37.2119C108.069 35.3595 111.708 34.3843 115.413 34.3843L159.28 34.384C162.984 34.384 166.624 35.3594 169.832 37.2118L207.822 59.1448C211.03 60.9972 213.695 63.6619 215.547 66.8703L237.481 104.86C239.333 108.068 240.308 111.708 240.308 115.412L240.308 159.279C240.308 162.984 239.333 166.624 237.481 169.832L215.547 207.822C213.695 211.03 211.03 213.694 207.822 215.547L169.832 237.48C166.624 239.333 162.984 240.308 159.28 240.308L115.413 240.308C111.708 240.308 108.068 239.333 104.86 237.48L66.8707 215.547C63.6623 213.694 60.9978 211.03 59.1454 207.822L37.2122 169.832C35.3598 166.623 34.3846 162.984 34.3846 159.279L34.3844 115.413C34.3844 111.708 35.3597 108.068 37.2121 104.86L59.1452 66.8704C60.9976 63.6619 63.6622 60.9974 66.8706 59.145L104.86 37.2119ZM115.413 38.6053C112.449 38.6053 109.538 39.3855 106.971 40.8674L68.981 62.8005C66.4143 64.2824 64.2827 66.4139 62.8008 68.9806L40.8674 106.97C39.3855 109.537 38.6055 112.449 38.6055 115.413L38.6058 159.279L38.608 159.557C38.6552 162.425 39.4322 165.235 40.8678 167.721L62.8008 205.711C64.2827 208.278 66.4142 210.409 68.9809 211.891L106.971 233.825C109.537 235.306 112.449 236.087 115.413 236.087L159.28 236.087C162.244 236.087 165.155 235.307 167.722 233.825L205.711 211.891C208.278 210.409 210.41 208.278 211.892 205.711L233.825 167.721C235.307 165.155 236.087 162.243 236.087 159.279L236.087 115.413C236.087 112.541 235.355 109.719 233.962 107.212L233.825 106.971L211.891 68.9807C210.41 66.414 208.278 64.2824 205.711 62.8005L167.722 40.8671C165.155 39.3853 162.243 38.6052 159.279 38.6052L115.413 38.6053Z" fill="#005544"/>
<path d="M102.928 31.2585C106.328 29.296 110.184 28.2628 114.109 28.2628L160.584 28.2625C164.509 28.2625 168.364 29.2959 171.764 31.2585L212.012 54.4955C215.411 56.458 218.234 59.2811 220.196 62.6803L243.434 102.928C245.396 106.328 246.43 110.184 246.43 114.109L246.429 160.584C246.429 164.509 245.396 168.365 243.434 171.764L220.196 212.012C218.234 215.411 215.411 218.234 212.012 220.196L171.764 243.434C168.364 245.396 164.508 246.43 160.583 246.43L114.109 246.429C110.184 246.429 106.327 245.397 102.928 243.434L62.6802 220.196C59.2811 218.234 56.4581 215.411 54.4956 212.012L31.2584 171.764C29.2959 168.364 28.2627 164.508 28.2627 160.583L28.2625 114.109C28.2625 110.184 29.2958 106.328 31.2583 102.928L54.4955 62.6804C56.458 59.2812 59.281 56.4582 62.6802 54.4956L102.928 31.2585ZM114.109 32.7348C110.969 32.7348 107.884 33.5614 105.165 35.1313L64.9161 58.3686C62.1967 59.9386 59.9384 62.1967 58.3684 64.9161L35.1309 105.165C33.5609 107.884 32.7345 110.969 32.7345 114.109L32.7348 160.584L32.7372 160.878C32.7872 163.916 33.6104 166.893 35.1313 169.528L58.3684 209.776C59.9384 212.495 62.1966 214.754 64.9159 216.324L105.164 239.561C107.884 241.131 110.969 241.957 114.109 241.957L160.584 241.958C163.724 241.958 166.808 241.131 169.528 239.561L209.776 216.324C212.495 214.754 214.753 212.495 216.323 209.776L239.561 169.528C241.131 166.808 241.957 163.723 241.957 160.583L241.958 114.109C241.958 111.067 241.182 108.077 239.706 105.421L239.561 105.165L216.323 64.9162C214.753 62.1969 212.495 59.9386 209.776 58.3685L169.527 35.1311C166.808 33.5611 163.723 32.7346 160.583 32.7346L114.109 32.7348Z" fill="#005544" fill-opacity="0.76"/>
<path d="M117.348 224.846C117.348 226.227 116.228 227.346 114.848 227.346C113.467 227.346 112.348 226.227 112.348 224.846C112.348 223.465 113.467 222.346 114.848 222.346C116.228 222.346 117.348 223.465 117.348 224.846Z" fill="#005544"/>
<path d="M128.71 227.346C127.646 227.346 126.828 227.051 126.257 226.46C125.685 225.86 125.399 225.038 125.399 223.994H126.981C126.991 224.536 127.129 224.993 127.395 225.367C127.661 225.741 128.094 225.928 128.695 225.928C129.277 225.928 129.69 225.746 129.937 225.382C130.193 225.018 130.321 224.565 130.321 224.024L130.321 216.833H131.888L131.888 224.024C131.888 225.087 131.607 225.909 131.045 226.49C130.484 227.06 129.705 227.346 128.71 227.346Z" fill="black"/>
<path d="M133.419 227.169L136.508 216.833H138.37L141.459 227.169H139.76L139.065 224.688H135.813L135.119 227.169H133.419ZM137.395 219.048L136.168 223.433H138.71L137.484 219.048H137.395Z" fill="black"/>
<path d="M142.621 227.169L142.621 216.833H144.158L148.489 224.408L148.489 216.833H149.982L149.982 227.169H148.445L144.114 219.594L144.114 227.169H142.621Z" fill="black"/>
<path d="M208.973 193.208L200.013 188.041L200.841 186.608L205.957 187.087L202.984 182.9L203.812 181.468L212.771 186.636L212.025 187.927L205.651 184.251L208.008 187.554L207.387 188.628L203.358 188.248L209.719 191.917L208.973 193.208Z" fill="black"/>
<path d="M213.293 185.733L205.878 177.893L206.809 176.281L217.313 178.777L216.464 180.247L213.966 179.608L212.34 182.421L214.143 184.262L213.293 185.733ZM208.241 178.233L211.429 181.487L212.701 179.287L208.286 178.156L208.241 178.233Z" fill="black"/>
<path d="M218.072 177.465L209.112 172.297L210.804 169.368C211.208 168.669 211.66 168.163 212.16 167.849C212.665 167.526 213.186 167.372 213.724 167.387C214.258 167.388 214.781 167.536 215.293 167.832C215.874 168.166 216.304 168.613 216.583 169.173C216.86 169.718 216.925 170.353 216.78 171.076L221.604 171.352L220.695 172.925L216.159 172.594L215.309 174.064L218.855 176.109L218.072 177.465ZM214.081 173.355L214.945 171.859C215.3 171.246 215.422 170.719 215.312 170.28C215.206 169.833 214.931 169.481 214.488 169.225C214.035 168.965 213.596 168.899 213.169 169.027C212.733 169.151 212.333 169.528 211.968 170.159L211.111 171.643L214.081 173.355Z" fill="black"/>
<path d="M146.163 47.3459C147.227 47.3459 148.045 47.6412 148.616 48.2318C149.188 48.8323 149.473 49.6542 149.473 50.6977H147.892C147.882 50.1563 147.744 49.6985 147.478 49.3245C147.212 48.9504 146.778 48.7634 146.177 48.7634C145.596 48.7634 145.182 48.9455 144.936 49.3097C144.68 49.6739 144.552 50.1267 144.552 50.6681V57.8589H142.985L142.985 50.6681C142.985 49.605 143.266 48.7831 143.827 48.2023C144.389 47.6314 145.167 47.3459 146.163 47.3459Z" fill="black"/>
<path d="M137.463 47.3459C138.163 47.3459 138.788 47.4886 139.34 47.7741C139.882 48.0596 140.311 48.4927 140.626 49.0735C140.941 49.6641 141.099 50.4073 141.099 51.303V57.8589H139.532V51.2145C139.532 50.427 139.345 49.8167 138.971 49.3835C138.596 48.9603 138.084 48.7486 137.433 48.7486C136.783 48.7486 136.271 48.9603 135.896 49.3835C135.522 49.8167 135.335 50.427 135.335 51.2144V57.8589H133.768V51.303C133.768 50.4073 133.931 49.6641 134.256 49.0735C134.581 48.4927 135.024 48.0596 135.586 47.7741C136.138 47.4886 136.763 47.3459 137.463 47.3459Z" fill="black"/>
<path d="M131.808 47.5231V57.8589H130.241V48.9258L125.142 48.9258V47.5231L131.808 47.5231Z" fill="black"/>
<path d="M171.955 221.155L166.782 212.204L172.529 208.889L173.261 210.155L168.87 212.687L170.452 215.424L174.138 213.297L174.825 214.487L171.139 216.613L173.312 220.372L171.955 221.155Z" fill="black"/>
<path d="M179.579 216.758L174.406 207.807L180.127 204.506L180.829 205.721L176.464 208.239L177.972 210.847L181.953 208.551L182.647 209.753L178.667 212.049L180.233 214.76L184.598 212.243L185.3 213.457L179.579 216.758Z" fill="black"/>
<path d="M186.946 212.508L181.773 203.557L184.973 201.711C185.903 201.175 186.731 200.982 187.455 201.133C188.179 201.283 188.736 201.695 189.125 202.369C189.425 202.889 189.533 203.389 189.447 203.871C189.361 204.352 189.181 204.769 188.906 205.12L188.958 205.21C189.473 205.117 189.985 205.157 190.495 205.329C190.999 205.493 191.414 205.856 191.739 206.419C192.005 206.879 192.133 207.368 192.125 207.884C192.12 208.387 191.964 208.875 191.657 209.348C191.349 209.821 190.88 210.239 190.249 210.603L186.946 212.508ZM185.288 206.508L186.965 205.541C187.485 205.241 187.823 204.91 187.978 204.548C188.128 204.177 188.079 203.779 187.833 203.352C187.345 202.508 186.56 202.399 185.476 203.024L183.825 203.976L185.288 206.508ZM187.579 210.472L189.345 209.453C189.9 209.134 190.258 208.768 190.418 208.357C190.579 207.946 190.526 207.511 190.26 207.05C189.999 206.598 189.642 206.344 189.188 206.288C188.73 206.223 188.231 206.345 187.694 206.655L185.953 207.659L187.579 210.472Z" fill="black"/>
<path d="M227.348 150.213L217.002 147.127V145.266L227.348 142.18V143.878L224.865 144.572V147.821L227.348 148.515V150.213ZM219.219 146.241L223.608 147.466V144.927L219.219 146.152V146.241Z" fill="black"/>
<path d="M227.348 140.724L217.002 140.724V137.225C217.002 136.437 217.14 135.788 217.416 135.276C217.682 134.764 218.051 134.385 218.524 134.139C218.997 133.893 219.539 133.77 220.15 133.77C220.761 133.77 221.303 133.893 221.776 134.139C222.249 134.385 222.623 134.764 222.899 135.276C223.165 135.788 223.298 136.437 223.298 137.225V139.159H227.348V140.724ZM221.894 139.159V137.299C221.894 136.629 221.736 136.142 221.421 135.837C221.106 135.522 220.682 135.364 220.15 135.364C219.628 135.364 219.209 135.522 218.894 135.837C218.568 136.142 218.406 136.629 218.406 137.299V139.159L221.894 139.159Z" fill="black"/>
<path d="M227.348 131.812L217.002 131.812V128.431C217.002 127.623 217.14 126.959 217.416 126.437C217.691 125.906 218.066 125.512 218.539 125.256C219.002 124.99 219.529 124.857 220.12 124.857C220.79 124.857 221.386 125.03 221.909 125.374C222.421 125.709 222.795 126.226 223.032 126.924L227.348 124.754V126.57L223.254 128.549V130.247H227.348V131.812ZM221.835 130.247V128.519C221.835 127.81 221.677 127.294 221.362 126.969C221.046 126.634 220.633 126.467 220.12 126.467C219.598 126.467 219.184 126.629 218.879 126.954C218.563 127.279 218.406 127.805 218.406 128.534V130.247L221.835 130.247Z" fill="black"/>
<path d="M190.038 63.7625C190.959 64.294 191.52 64.9583 191.719 65.7552C191.914 66.5607 191.75 67.4152 191.227 68.3189L189.858 67.5289C190.12 67.0551 190.23 66.5898 190.187 66.133C190.144 65.6762 189.862 65.2976 189.341 64.9974C188.838 64.707 188.388 64.658 187.993 64.8504C187.588 65.0378 187.251 65.366 186.98 65.8349L183.381 72.0622L182.024 71.2797L185.623 65.0523C186.155 64.1316 186.81 63.5601 187.587 63.3376C188.359 63.1238 189.176 63.2654 190.038 63.7625Z" fill="black"/>
<path d="M182.504 59.4169C183.11 59.7664 183.58 60.2025 183.915 60.7254C184.241 61.2433 184.396 61.8325 184.378 62.4929C184.356 63.1619 184.12 63.8843 183.672 64.66L180.391 70.3376L179.034 69.555L182.36 63.8008C182.754 63.1188 182.897 62.4967 182.789 61.9346C182.677 61.381 182.339 60.9418 181.776 60.617C181.213 60.2921 180.663 60.2195 180.127 60.399C179.586 60.5871 179.119 61.0221 178.724 61.7041L175.399 67.4583L174.042 66.6758L177.323 60.9982C177.772 60.2225 178.284 59.6601 178.862 59.311C179.434 58.9704 180.035 58.8168 180.664 58.8502C181.285 58.8786 181.898 59.0675 182.504 59.4169Z" fill="black"/>
<path d="M177.902 56.9672L172.729 65.9182L171.398 65.1504L171.438 56.4274L167.647 62.9873L166.354 62.2416L171.527 53.2906L172.859 54.0584L172.818 62.7814L176.609 56.2215L177.902 56.9672Z" fill="black"/>
<path d="M221.631 103.386L212.671 108.553L211.843 107.121L214.816 102.934L209.7 103.413L208.872 101.981L217.832 96.813L218.579 98.1045L212.204 101.781L216.247 101.393L216.868 102.467L214.523 105.763L220.884 102.094L221.631 103.386Z" fill="black"/>
<path d="M217.31 95.9101L206.806 98.4054L205.875 96.7943L213.29 88.9538L214.14 90.4244L212.337 92.2657L213.963 95.0789L216.461 94.4396L217.31 95.9101ZM208.283 96.5308L212.698 95.3995L211.427 93.2001L208.238 96.4541L208.283 96.5308Z" fill="black"/>
<path d="M211.261 85.4424L207.856 87.4062L204.008 93.5641L203.114 92.0168L206.031 87.5553L200.705 87.8482L199.811 86.301L207.073 86.0507L210.478 84.0869L211.261 85.4424Z" fill="black"/>
<path d="M63.7952 84.7706C64.1598 84.1397 64.5952 83.6521 65.1015 83.3076C65.6028 82.9716 66.1457 82.7902 66.73 82.7635C67.3094 82.7454 67.8959 82.9018 68.4896 83.2329L67.662 84.6651C67.2048 84.4127 66.7278 84.3422 66.2311 84.4536C65.7381 84.5784 65.3339 84.9135 65.0186 85.4591C64.7279 85.9621 64.6165 86.4207 64.6843 86.8349C64.7606 87.254 64.9865 87.5719 65.362 87.7884C65.6777 87.9705 65.9872 88.0354 66.2906 87.983C66.5975 87.9441 66.933 87.7966 67.2972 87.5406C67.6698 87.2895 68.1059 86.9386 68.6053 86.4879C69.2728 85.884 69.9167 85.5279 70.5368 85.4196C71.1654 85.3162 71.787 85.4416 72.4014 85.796C73.1096 86.2045 73.5335 86.79 73.6731 87.5525C73.8127 88.315 73.6239 89.1438 73.1066 90.0389C72.6041 90.9084 71.9739 91.477 71.2162 91.7447C70.4671 92.0173 69.6907 91.9333 68.8873 91.4926L69.7224 90.0477C69.9357 90.1707 70.175 90.2292 70.4402 90.223C70.714 90.2218 70.9789 90.1473 71.235 89.9995C71.4996 89.8566 71.7256 89.6231 71.9128 89.2992C72.1529 88.9035 72.2493 88.5101 72.2022 88.1192C72.1636 87.7332 71.9736 87.4418 71.6323 87.2449C71.2141 87.0037 70.7895 86.9805 70.3585 87.1751C69.9359 87.3747 69.3842 87.7782 68.7032 88.3857C68.2786 88.766 67.8519 89.0711 67.4231 89.3012C66.998 89.5447 66.5556 89.6703 66.096 89.6781C65.6401 89.6992 65.1518 89.5597 64.6313 89.2595C64.1534 88.9839 63.7872 88.6135 63.5326 88.1484C63.2866 87.6882 63.1789 87.1658 63.2096 86.5811C63.2354 86.0049 63.4306 85.4014 63.7952 84.7706Z" fill="black"/>
<path d="M61.1952 89.6238L70.1551 94.7917L66.8518 100.508L65.6358 99.8062L68.1557 95.4458L65.5446 93.9397L63.2463 97.9165L62.0431 97.2225L64.3414 93.2457L61.6278 91.6806L59.1079 96.041L57.8919 95.3397L61.1952 89.6238Z" fill="black"/>
<path d="M56.8306 97.176L65.7905 102.344L64.0391 105.374C63.6449 106.056 63.2003 106.55 62.7052 106.856C62.2186 107.166 61.7089 107.31 61.1762 107.287C60.6434 107.263 60.1125 107.099 59.5834 106.794C59.0544 106.489 58.6466 106.112 58.3602 105.662C58.0738 105.213 57.9392 104.698 57.9565 104.117C57.9822 103.541 58.1922 102.911 58.5863 102.229L59.5544 100.554L56.0473 98.5315L56.8306 97.176ZM60.7704 101.256L59.8393 102.867C59.5043 103.447 59.3969 103.947 59.5173 104.369C59.6327 104.799 59.9208 105.147 60.3816 105.413C60.8338 105.674 61.2753 105.747 61.706 105.631C62.1403 105.53 62.525 105.189 62.86 104.609L63.7912 102.998L60.7704 101.256Z" fill="black"/>
<path d="M103.634 53.1236L106.132 63.6176L104.52 64.5479L96.6714 57.1398L98.1434 56.2908L99.9865 58.0921L102.802 56.4679L102.163 53.9726L103.634 53.1236ZM104.256 62.1425L103.123 57.732L100.922 59.0018L104.179 62.1868L104.256 62.1425Z" fill="black"/>
<path d="M92.415 59.3902C93.0208 59.0408 93.6341 58.8519 94.2548 58.8235C94.867 58.8 95.455 58.961 96.0188 59.3064C96.5874 59.6604 97.0959 60.2253 97.5442 61.0011L100.825 66.6786L99.4686 67.4611L96.1431 61.7069C95.749 61.0249 95.2814 60.5899 94.7404 60.4018C94.2043 60.2223 93.6546 60.2949 93.0914 60.6198C92.5282 60.9446 92.1904 61.3838 92.078 61.9374C91.9705 62.4996 92.1138 63.1216 92.508 63.8036L95.8335 69.5578L94.4767 70.3404L91.1955 64.6629C90.7472 63.8871 90.516 63.1623 90.502 62.4884C90.493 61.823 90.6602 61.2264 91.0037 60.6987C91.3387 60.1758 91.8091 59.7397 92.415 59.3902Z" fill="black"/>
<path d="M84.8297 63.7653C85.4953 63.3814 86.1882 63.2318 86.9084 63.3165C87.6336 63.4097 88.3365 63.7204 89.0171 64.2485C89.6978 64.7766 90.3115 65.5137 90.8584 66.46C91.3954 67.3892 91.7226 68.2803 91.8401 69.1332C91.9576 69.9861 91.8669 70.7545 91.5681 71.4384C91.2656 72.1356 90.7475 72.6959 90.0136 73.1192C89.1262 73.6311 88.2732 73.7991 87.4548 73.6232C86.6279 73.4523 85.8985 72.958 85.2667 72.1404L86.7386 71.2913C87.09 71.7025 87.4896 71.9607 87.9374 72.0662C88.3766 72.1766 88.8224 72.1013 89.2746 71.8405C89.9658 71.4418 90.3224 70.8383 90.3445 70.0299C90.3666 69.2215 90.0771 68.2973 89.476 67.2573C88.8503 66.1747 88.178 65.4542 87.459 65.096C86.7364 64.7513 86.0636 64.7585 85.4407 65.1178C85.0226 65.359 84.7484 65.6819 84.6182 66.0867C84.488 66.4914 84.4612 66.9274 84.5379 67.3947C84.6194 67.8705 84.7688 68.3356 84.9859 68.7901L86.8675 67.7048L87.5178 68.8301L84.2666 70.7053L81.488 65.8973L82.7424 65.1738L83.5266 66.3241L83.6034 66.2798C83.5475 65.7892 83.5992 65.3275 83.7586 64.8946C83.918 64.4616 84.275 64.0852 84.8297 63.7653Z" fill="black"/>
<path d="M47.3477 128.495C47.3477 127.659 47.5644 126.935 47.998 126.325C48.4315 125.715 49.0474 125.247 49.8455 124.922C50.6436 124.597 51.5944 124.435 52.698 124.435C53.8016 124.435 54.7524 124.597 55.5505 124.922C56.3486 125.247 56.9645 125.715 57.398 126.325C57.8316 126.935 58.0483 127.659 58.0483 128.495C58.0483 129.342 57.8316 130.065 57.398 130.666C56.9645 131.276 56.3486 131.744 55.5505 132.069C54.7524 132.393 53.8016 132.556 52.698 132.556C51.5944 132.556 50.6436 132.393 49.8455 132.069C49.0474 131.744 48.4315 131.276 47.998 130.666C47.5644 130.065 47.3477 129.342 47.3477 128.495ZM48.8257 128.495C48.8257 129.234 49.1557 129.829 49.8159 130.282C50.4859 130.735 51.4466 130.961 52.698 130.961C53.9494 130.961 54.9051 130.735 55.5653 130.282C56.2353 129.829 56.5703 129.234 56.5703 128.495C56.5703 127.747 56.2353 127.147 55.5653 126.694C54.9051 126.251 53.9494 126.03 52.698 126.03C51.4466 126.03 50.4859 126.251 49.8159 126.694C49.1557 127.147 48.8257 127.747 48.8257 128.495Z" fill="black"/>
<path d="M47.3477 137.378C47.3477 136.512 47.5694 135.774 48.0128 135.164C48.4562 134.563 49.0769 134.1 49.875 133.776C50.683 133.461 51.6191 133.303 52.6832 133.303C53.7572 133.303 54.6933 133.461 55.4914 133.776C56.2994 134.1 56.9251 134.568 57.3685 135.178C57.8217 135.789 58.0483 136.522 58.0483 137.378C58.0483 138.491 57.7429 139.377 57.132 140.036C56.5309 140.696 55.7131 141.08 54.6785 141.188V139.46C55.2204 139.372 55.6688 139.15 56.0235 138.796C56.3881 138.451 56.5703 137.974 56.5703 137.364C56.5703 136.586 56.2255 135.981 55.5357 135.547C54.846 135.114 53.8952 134.898 52.6832 134.898C51.4811 134.898 50.5352 135.114 49.8455 135.547C49.1656 135.981 48.8257 136.586 48.8257 137.364C48.8257 137.994 48.9882 138.476 49.3134 138.811C49.6484 139.145 50.0869 139.362 50.6288 139.46V141.188C49.6139 141.03 48.8109 140.632 48.2197 139.992C47.6383 139.352 47.3477 138.481 47.3477 137.378Z" fill="black"/>
<path d="M47.525 145.42H56.4669V142.644H57.871L57.871 149.761H56.4669V146.985H47.525L47.525 145.42Z" fill="black"/>
<path d="M81.6979 208.915L86.8709 199.964L89.0213 201.205C90.4634 202.036 91.3028 203.055 91.5394 204.26C91.7809 205.456 91.5002 206.749 90.6971 208.139C89.8941 209.528 88.9111 210.422 87.7483 210.82C86.5904 211.209 85.2904 210.988 83.8483 210.156L81.6979 208.915ZM83.7789 208.445L84.5213 208.873C85.5624 209.474 86.4808 209.617 87.2766 209.303C88.0773 208.98 88.761 208.329 89.3276 207.349C89.8941 206.368 90.1145 205.455 89.9887 204.61C89.8679 203.756 89.2869 203.029 88.2459 202.428L87.5035 202L83.7789 208.445Z" fill="black"/>
<path d="M89.6672 213.512L94.8402 204.561L100.562 207.861L99.8597 209.076L95.4949 206.558L93.9874 209.167L97.9681 211.463L97.2735 212.665L93.2927 210.369L91.726 213.08L96.0908 215.597L95.3887 216.812L89.6672 213.512Z" fill="black"/>
<path d="M100.095 219.731C99.3441 219.298 98.8149 218.737 98.5076 218.048C98.2087 217.364 98.118 216.596 98.2355 215.743C98.3664 214.887 98.6979 213.998 99.23 213.077C99.767 212.148 100.372 211.417 101.044 210.884C101.729 210.347 102.447 210.04 103.198 209.961C103.954 209.874 104.703 210.045 105.445 210.473C106.41 211.029 107.025 211.737 107.291 212.595C107.562 213.445 107.486 214.344 107.063 215.293L105.565 214.43C105.759 213.916 105.792 213.418 105.662 212.934C105.545 212.446 105.223 212.05 104.694 211.745C104.019 211.356 103.322 211.351 102.602 211.732C101.882 212.112 101.218 212.826 100.612 213.875C100.011 214.915 99.7261 215.841 99.7567 216.655C99.7922 217.459 100.147 218.056 100.821 218.445C101.367 218.76 101.867 218.861 102.319 218.747C102.777 218.624 103.184 218.353 103.54 217.933L105.038 218.797C104.394 219.596 103.647 220.092 102.797 220.283C101.951 220.466 101.051 220.282 100.095 219.731Z" fill="black"/>
<path d="M53.301 171.408L62.2609 166.241L63.0294 167.57L58.6284 175.104L65.1947 171.317L65.9411 172.609L56.9812 177.777L56.2126 176.447L60.6137 168.913L54.0474 172.7L53.301 171.408Z" fill="black"/>
<path d="M59.4186 182.348C58.9998 181.624 58.8255 180.889 58.8955 180.144C58.9655 179.399 59.2648 178.686 59.7934 178.006C60.322 177.326 61.0642 176.711 62.0199 176.159C62.9756 175.608 63.8803 175.274 64.7341 175.157C65.5879 175.039 66.3552 175.136 67.0361 175.448C67.7171 175.76 68.2669 176.279 68.6857 177.003C69.1094 177.736 69.2837 178.471 69.2088 179.208C69.1388 179.953 68.8395 180.666 68.3109 181.346C67.7823 182.026 67.0401 182.641 66.0844 183.192C65.1287 183.744 64.2239 184.078 63.3701 184.195C62.5164 184.313 61.749 184.215 61.0681 183.903C60.3921 183.6 59.8423 183.082 59.4186 182.348ZM60.6986 181.61C61.0681 182.25 61.652 182.6 62.4504 182.663C63.2572 182.72 64.2025 182.436 65.2863 181.811C66.37 181.186 67.0844 180.513 67.4295 179.791C67.7831 179.064 67.7752 178.381 67.4057 177.742C67.0313 177.094 66.4406 176.741 65.6337 176.684C64.8403 176.63 63.9017 176.915 62.818 177.54C61.7343 178.165 61.0131 178.837 60.6546 179.555C60.3095 180.277 60.3242 180.962 60.6986 181.61Z" fill="black"/>
<path d="M63.5377 189.122L70.9014 181.192L71.7438 182.649L65.7953 188.894L74.1825 186.869L75.025 188.327L64.4689 190.733L63.5377 189.122Z" fill="black"/>
</svg>
