<svg width="474" height="474" viewBox="0 0 474 474" fill="none" xmlns="http://www.w3.org/2000/svg">
<path d="M164.307 5.70716C170.388 2.19642 177.286 0.348169 184.307 0.348169L289.693 0.348169C296.714 0.348169 303.612 2.19642 309.693 5.70715L400.959 58.3999C407.04 61.9106 412.089 66.9601 415.6 73.0409L468.293 164.307C471.804 170.388 473.652 177.286 473.652 184.307L473.652 289.693C473.652 296.714 471.804 303.612 468.293 309.693L415.6 400.959C412.089 407.04 407.04 412.089 400.959 415.6L309.693 468.293C303.612 471.804 296.714 473.652 289.693 473.652L184.307 473.652C177.286 473.652 170.388 471.804 164.307 468.293L73.0409 415.6C66.9601 412.089 61.9106 407.04 58.3999 400.959L5.70716 309.693C2.19643 303.612 0.348173 296.714 0.348173 289.693L0.348173 184.307C0.348173 177.286 2.19642 170.388 5.70716 164.307L58.3998 73.0409C61.9106 66.9601 66.9601 61.9106 73.0409 58.3999L164.307 5.70716Z" fill="#D9D9D9"/>
</svg>
