<svg width="114" height="84" viewBox="0 0 114 84" fill="none" xmlns="http://www.w3.org/2000/svg">
<rect x="1" y="1" width="112" height="82" rx="9" fill="#D9D9D9" fill-opacity="0.36"/>
<rect x="0.5" y="0.5" width="113" height="83" rx="9.5" stroke="black" stroke-opacity="0.11"/>
<rect x="6.5" y="6.5" width="11" height="11" rx="3.5" stroke="#D9D9D9"/>
<rect x="21.5" y="6.5" width="11" height="11" rx="3.5" stroke="#D9D9D9"/>
<rect x="36.5" y="6.5" width="11" height="11" rx="3.5" stroke="#D9D9D9"/>
<rect x="51.5" y="6.5" width="11" height="11" rx="3.5" stroke="#D9D9D9"/>
<rect x="66.5" y="6.5" width="11" height="11" rx="3.5" stroke="#D9D9D9"/>
<rect x="81.5" y="6.5" width="11" height="11" rx="3.5" stroke="#D9D9D9"/>
<rect x="96.5" y="6.5" width="11" height="11" rx="3.5" stroke="#D9D9D9"/>
<rect x="6.5" y="21.5" width="11" height="11" rx="3.5" stroke="#D9D9D9"/>
<rect x="21.5" y="21.5" width="11" height="11" rx="3.5" stroke="#D9D9D9"/>
<rect x="36.5" y="21.5" width="11" height="11" rx="3.5" stroke="#D9D9D9"/>
<rect x="51.5" y="21.5" width="11" height="11" rx="3.5" stroke="#D9D9D9"/>
<rect x="66.5" y="21.5" width="11" height="11" rx="3.5" stroke="#D9D9D9"/>
<rect x="81.5" y="21.5" width="11" height="11" rx="3.5" stroke="#D9D9D9"/>
<rect x="96.5" y="21.5" width="11" height="11" rx="3.5" stroke="#D9D9D9"/>
<rect x="6.5" y="66.5" width="11" height="11" rx="3.5" stroke="#D9D9D9"/>
<rect x="21.5" y="66.5" width="11" height="11" rx="3.5" stroke="#D9D9D9"/>
<rect x="36.5" y="66.5" width="11" height="11" rx="3.5" stroke="#D9D9D9"/>
<rect x="51.5" y="66.5" width="11" height="11" rx="3.5" stroke="#151515" stroke-opacity="0.1"/>
<rect x="66.5" y="66.5" width="11" height="11" rx="3.5" stroke="#151515" stroke-opacity="0.1"/>
<rect x="81.5" y="66.5" width="11" height="11" rx="3.5" stroke="#151515" stroke-opacity="0.1"/>
<rect x="96.5" y="66.5" width="11" height="11" rx="3.5" stroke="#151515" stroke-opacity="0.1"/>
<rect x="6.5" y="36.5" width="11" height="11" rx="3.5" stroke="#D9D9D9"/>
<rect x="21.5" y="36.5" width="11" height="11" rx="3.5" stroke="#D9D9D9"/>
<rect x="36.5" y="36.5" width="11" height="11" rx="3.5" stroke="#D9D9D9"/>
<rect x="51.5" y="36.5" width="11" height="11" rx="3.5" stroke="#D9D9D9"/>
<rect x="66.5" y="36.5" width="11" height="11" rx="3.5" stroke="#D9D9D9"/>
<rect x="81.5" y="36.5" width="11" height="11" rx="3.5" stroke="#D9D9D9"/>
<rect x="96.5" y="36.5" width="11" height="11" rx="3.5" stroke="#D9D9D9"/>
<rect x="6.5" y="51.5" width="11" height="11" rx="3.5" stroke="#D9D9D9"/>
<rect x="21.5" y="51.5" width="11" height="11" rx="3.5" stroke="#D9D9D9"/>
<rect x="36.5" y="51.5" width="11" height="11" rx="3.5" stroke="#D9D9D9"/>
<rect x="51.5" y="51.5" width="11" height="11" rx="3.5" stroke="#D9D9D9"/>
<rect x="66.5" y="51.5" width="11" height="11" rx="3.5" stroke="#D9D9D9"/>
<rect x="81.5" y="51.5" width="11" height="11" rx="3.5" stroke="#D9D9D9"/>
<rect x="96.5" y="51.5" width="11" height="11" rx="3.5" stroke="#D9D9D9"/>
</svg>
