<?xml version="1.0" encoding="UTF-8" standalone="no"?>
<!DOCTYPE svg PUBLIC "-//W3C//DTD SVG 1.1//EN" "http://www.w3.org/Graphics/SVG/1.1/DTD/svg11.dtd">
<svg width="100%" height="100%" viewBox="0 0 1239 542" version="1.1" xmlns="http://www.w3.org/2000/svg" xmlns:xlink="http://www.w3.org/1999/xlink" xml:space="preserve" xmlns:serif="http://www.serif.com/" style="fill-rule:evenodd;clip-rule:evenodd;stroke-linejoin:round;stroke-miterlimit:1.5;">
    <g transform="matrix(1,0,0,1,-12519.728259,-6967.256987)">
        <g transform="matrix(1,0,0,1,12720.773364,5640)">
            <g transform="matrix(-0.200071,-0.746674,0.746674,-0.200071,933.190201,8325.482828)">
                <path d="M8522.858,1073.675C8553.128,1056.168 8578.265,1031.012 8595.75,1000.728C8630.77,1000.728 8665.172,991.51 8695.5,974C8725.828,991.51 8760.23,1000.728 8795.25,1000.728C8812.76,1031.056 8837.944,1056.24 8868.272,1073.75C8868.272,1108.77 8877.49,1143.172 8895,1173.5C8877.49,1203.828 8868.272,1238.23 8868.272,1273.25C8837.944,1290.76 8812.76,1315.944 8795.25,1346.272C8760.23,1346.272 8725.828,1355.49 8695.5,1373C8665.172,1355.49 8630.77,1346.272 8595.75,1346.272C8578.24,1315.944 8553.056,1290.76 8522.728,1273.25C8522.728,1238.281 8513.536,1203.926 8496.075,1173.63L8538.516,1173.602C8549.966,1198.339 8557.067,1224.867 8559.507,1252.016C8581.829,1267.725 8601.275,1287.171 8616.984,1309.493C8644.171,1311.936 8670.735,1319.054 8695.5,1330.531C8720.266,1319.054 8746.829,1311.936 8774.016,1309.493C8789.725,1287.171 8809.171,1267.725 8831.493,1252.016C8833.936,1224.829 8841.054,1198.265 8852.531,1173.5C8841.054,1148.734 8833.936,1122.171 8831.493,1094.984C8809.171,1079.275 8789.725,1059.829 8774.016,1037.507C8746.829,1035.064 8720.266,1027.946 8695.5,1016.469C8670.734,1027.946 8644.17,1035.064 8616.984,1037.507C8601.297,1059.799 8581.883,1079.222 8559.599,1094.919L8522.858,1073.675Z" style="fill:rgb(0,85,68);"/>
            </g>
        </g>
        <g transform="matrix(1,0,0,1,12720.773364,5640)">
            <g transform="matrix(0.219916,-0,-0,0.219916,-1795.579114,1339.928919)">
                <path d="M8695.5,974C8730.52,974 8764.922,983.218 8795.25,1000.728C8825.578,1018.238 8850.762,1043.422 8868.272,1073.75C8885.782,1104.078 8895,1138.48 8895,1173.5C8895,1208.52 8885.782,1242.922 8868.272,1273.25C8850.762,1303.578 8825.578,1328.762 8795.25,1346.272C8764.922,1363.782 8730.52,1373 8695.5,1373C8660.48,1373 8626.078,1363.782 8595.75,1346.272C8565.422,1328.762 8540.238,1303.578 8522.728,1273.25C8505.218,1242.922 8496,1208.52 8496,1173.5C8496,1138.48 8505.218,1104.078 8522.728,1073.75C8540.238,1043.422 8565.422,1018.238 8595.75,1000.728C8626.078,983.218 8660.48,974 8695.5,974ZM8695.5,1106.627C8683.761,1106.627 8672.229,1109.717 8662.063,1115.586C8651.897,1121.455 8643.455,1129.897 8637.586,1140.063C8631.717,1150.229 8628.627,1161.761 8628.627,1173.5C8628.627,1185.239 8631.717,1196.771 8637.586,1206.937C8643.455,1217.103 8651.897,1225.545 8662.063,1231.414C8672.229,1237.283 8683.761,1240.373 8695.5,1240.373C8707.239,1240.373 8718.771,1237.283 8728.937,1231.414C8739.103,1225.545 8747.545,1217.103 8753.414,1206.937C8759.283,1196.771 8762.373,1185.239 8762.373,1173.5C8762.373,1161.761 8759.283,1150.229 8753.414,1140.063C8747.545,1129.897 8739.103,1121.455 8728.937,1115.586C8718.771,1109.717 8707.239,1106.627 8695.5,1106.627Z" style="fill:rgb(0,85,68);"/>
            </g>
        </g>
        <g transform="matrix(1,0,0,1,12720.773364,5640)">
            <g transform="matrix(0.219916,-0,-0,0.219916,-1889.579114,1339.928919)">
                <path d="M8695.5,974C8730.52,974 8764.922,983.218 8795.25,1000.728C8825.578,1018.238 8850.762,1043.422 8868.272,1073.75C8885.782,1104.078 8895,1138.48 8895,1173.5C8895,1208.52 8885.782,1242.922 8868.272,1273.25C8850.762,1303.578 8825.578,1328.762 8795.25,1346.272C8764.922,1363.782 8730.52,1373 8695.5,1373C8660.48,1373 8626.078,1363.782 8595.75,1346.272C8565.422,1328.762 8540.238,1303.578 8522.728,1273.25C8505.218,1242.922 8496,1208.52 8496,1173.5C8496,1138.48 8505.218,1104.078 8522.728,1073.75C8540.238,1043.422 8565.422,1018.238 8595.75,1000.728C8626.078,983.218 8660.48,974 8695.5,974ZM8695.5,1106.627C8683.761,1106.627 8672.229,1109.717 8662.063,1115.586C8651.897,1121.455 8643.455,1129.897 8637.586,1140.063C8631.717,1150.229 8628.627,1161.761 8628.627,1173.5C8628.627,1185.239 8631.717,1196.771 8637.586,1206.937C8643.455,1217.103 8651.897,1225.545 8662.063,1231.414C8672.229,1237.283 8683.761,1240.373 8695.5,1240.373C8707.239,1240.373 8718.771,1237.283 8728.937,1231.414C8739.103,1225.545 8747.545,1217.103 8753.414,1206.937C8759.283,1196.771 8762.373,1185.239 8762.373,1173.5C8762.373,1161.761 8759.283,1150.229 8753.414,1140.063C8747.545,1129.897 8739.103,1121.455 8728.937,1115.586C8718.771,1109.717 8707.239,1106.627 8695.5,1106.627Z" style="fill:rgb(0,85,68);"/>
            </g>
        </g>
        <g transform="matrix(1,0,0,1,12720.773364,5640)">
            <g transform="matrix(1.357108,0.363636,-0.363636,1.357108,-11304.306496,-3156.562439)">
                <path d="M8695.37,1372.925C8665.074,1355.464 8630.719,1346.272 8595.75,1346.272C8578.24,1315.944 8553.056,1290.76 8522.728,1273.25C8522.728,1238.23 8513.51,1203.828 8496,1173.5C8513.51,1143.172 8522.728,1108.77 8522.728,1073.75C8553.056,1056.24 8578.24,1031.056 8595.75,1000.728C8630.77,1000.728 8665.172,991.51 8695.5,974C8725.828,991.51 8760.23,1000.728 8795.25,1000.728C8802.259,1012.869 8810.499,1024.185 8819.806,1034.515L8805.109,1049.212C8797.167,1040.484 8789.919,1031.11 8783.447,1021.171C8752.811,1019.527 8722.854,1011.5 8695.5,997.606C8668.146,1011.5 8638.189,1019.527 8607.553,1021.171C8590.811,1046.881 8568.881,1068.811 8543.171,1085.553C8541.527,1116.189 8533.5,1146.147 8519.606,1173.5C8533.5,1200.853 8541.527,1230.811 8543.171,1261.447C8568.881,1278.189 8590.811,1300.119 8607.553,1325.829C8638.146,1327.471 8668.063,1335.478 8695.385,1349.336L8695.37,1372.925ZM8783.517,1325.721C8800.25,1300.058 8822.155,1278.165 8847.829,1261.447C8849.473,1230.811 8857.5,1200.853 8871.394,1173.5C8857.5,1146.147 8849.473,1116.189 8847.829,1085.553C8837.89,1079.081 8828.516,1071.833 8819.788,1063.891L8834.485,1049.194C8844.815,1058.501 8856.131,1066.741 8868.272,1073.75C8868.272,1108.77 8877.49,1143.172 8895,1173.5C8877.49,1203.828 8868.272,1238.23 8868.272,1273.25C8837.988,1290.735 8812.832,1315.872 8795.325,1346.142L8783.517,1325.721Z"/>
            </g>
        </g>
        <g transform="matrix(1,0,0,1,12720.773364,5640)">
            <g transform="matrix(1.687799,0,0,1.687799,370.086982,-1156.880617)">
                <g transform="matrix(1,0,0,1,-549,631)">
                    <path d="M571.921,1044L571.921,1030.151L618.146,972.389L572.68,972.389L572.68,958.245L637.608,958.245L637.608,972.094L591.223,1029.856L638.46,1029.856L638.46,1044L571.921,1044Z" style="fill:url(#_Radial1);"/>
                    <g transform="matrix(-1,0,0,1,1420.951175,107.326138)">
                        <path d="M571.921,1044L571.921,1030.151L618.146,972.389L572.68,972.389L572.68,958.245L637.608,958.245L637.608,972.094L591.223,1029.856L638.46,1029.856L638.46,1044L571.921,1044Z" style="fill:url(#_Radial2);"/>
                    </g>
                    <path d="M690.972,1046.044C682.75,1046.044 675.47,1044.181 669.131,1040.457C662.792,1036.732 657.822,1031.514 654.222,1024.803C650.621,1018.093 648.821,1010.282 648.821,1001.373C648.821,992.332 650.598,984.437 654.154,977.688C657.709,970.939 662.674,965.671 669.05,961.883C675.425,958.095 682.815,956.201 691.219,956.201C699.641,956.201 706.865,958.064 712.892,961.788C718.919,965.513 723.559,970.464 726.811,976.642C730.064,982.82 731.691,989.654 731.691,997.147C731.691,998.282 731.685,999.501 731.675,1000.803C731.664,1002.105 731.592,1003.541 731.459,1005.109L679.111,1005.109L679.111,993.099L714.726,993.099C714.419,985.965 712.048,980.387 707.613,976.364C703.179,972.341 697.642,970.33 691.004,970.33C686.442,970.33 682.223,971.368 678.347,973.445C674.47,975.521 671.362,978.581 669.022,982.624C666.682,986.668 665.512,991.747 665.512,997.863L665.512,1002.693C665.512,1009.01 666.676,1014.342 669.003,1018.687C671.331,1023.031 674.421,1026.312 678.275,1028.529C682.128,1030.746 686.34,1031.854 690.91,1031.854C696.385,1031.854 700.887,1030.664 704.416,1028.284C707.945,1025.904 710.551,1022.669 712.235,1018.58L729.282,1018.58C727.789,1023.803 725.289,1028.483 721.784,1032.621C718.28,1036.758 713.942,1040.029 708.772,1042.435C703.603,1044.841 697.669,1046.044 690.972,1046.044Z"/>
                    <g transform="matrix(1,0,0,1,212.473593,107)">
                        <path d="M690.972,1046.044C682.75,1046.044 675.47,1044.181 669.131,1040.457C662.792,1036.732 657.822,1031.514 654.222,1024.803C650.621,1018.093 648.821,1010.282 648.821,1001.373C648.821,992.332 650.598,984.437 654.154,977.688C657.709,970.939 662.674,965.671 669.05,961.883C675.425,958.095 682.815,956.201 691.219,956.201C699.641,956.201 706.865,958.064 712.892,961.788C718.919,965.513 723.559,970.464 726.811,976.642C730.064,982.82 731.691,989.654 731.691,997.147C731.691,998.282 731.685,999.501 731.675,1000.803C731.664,1002.105 731.592,1003.541 731.459,1005.109L679.111,1005.109L679.111,993.099L714.726,993.099C714.419,985.965 712.048,980.387 707.613,976.364C703.179,972.341 697.642,970.33 691.004,970.33C686.442,970.33 682.223,971.368 678.347,973.445C674.47,975.521 671.362,978.581 669.022,982.624C666.682,986.668 665.512,991.747 665.512,997.863L665.512,1002.693C665.512,1009.01 666.676,1014.342 669.003,1018.687C671.331,1023.031 674.421,1026.312 678.275,1028.529C682.128,1030.746 686.34,1031.854 690.91,1031.854C696.385,1031.854 700.887,1030.664 704.416,1028.284C707.945,1025.904 710.551,1022.669 712.235,1018.58L729.282,1018.58C727.789,1023.803 725.289,1028.483 721.784,1032.621C718.28,1036.758 713.942,1040.029 708.772,1042.435C703.603,1044.841 697.669,1046.044 690.972,1046.044Z"/>
                    </g>
                    <g transform="matrix(0.592488,0,0,0.59349,-7212.638606,-2049.827072)">
                        <rect x="13433.673" y="5068.446" width="28.742" height="325.332" style="fill:url(#_Radial3);"/>
                    </g>
                    <path d="M818.044,1044C812.663,1044 807.979,1043.158 803.992,1041.475C800.004,1039.791 796.939,1036.958 794.796,1032.977C792.653,1028.996 791.581,1023.603 791.581,1016.797L791.581,972.56L776.739,972.56L776.739,958.245L832.862,958.245L832.862,972.56L808.61,972.56L808.61,1016.858C808.61,1021.737 809.616,1025.056 811.628,1026.814C813.64,1028.572 817.162,1029.451 822.193,1029.451L832.029,1029.451L832.029,1044L818.044,1044Z" style="fill:url(#_Radial4);"/>
                    <g transform="matrix(1,0,0,-1,-107.326138,2109.571199)">
                        <path d="M818.044,1044C812.663,1044 807.979,1043.158 803.992,1041.475C800.004,1039.791 796.939,1036.958 794.796,1032.977C792.653,1028.996 791.581,1023.603 791.581,1016.797L791.581,972.56L776.739,972.56L776.739,958.245L832.862,958.245L832.862,972.56L808.61,972.56L808.61,1016.858C808.61,1021.737 809.616,1025.056 811.628,1026.814C813.64,1028.572 817.162,1029.451 822.193,1029.451L832.029,1029.451L832.029,1044L818.044,1044Z" style="fill:url(#_Radial5);"/>
                    </g>
                </g>
            </g>
        </g>
        <g transform="matrix(1,0,0,1,12720.773364,5640)">
            <g transform="matrix(-0.76935,0.76935,-0.76935,-0.76935,7662.411357,-4189.049403)">
                <path d="M8868.272,1073.9C8868.298,1108.868 8877.515,1143.216 8895,1173.5C8877.49,1203.828 8868.272,1238.23 8868.272,1273.25C8837.944,1290.76 8812.76,1315.944 8795.25,1346.272C8782.249,1346.272 8769.333,1347.543 8756.679,1350.036L8749.727,1324.091C8759.715,1322.04 8769.851,1320.662 8780.067,1319.975C8796.476,1295.507 8817.507,1274.476 8841.975,1258.067C8843.951,1228.673 8851.649,1199.944 8864.635,1173.5C8851.667,1147.092 8843.973,1118.407 8841.983,1089.055L8868.272,1073.9ZM8779.945,1027.017C8750.593,1025.027 8721.908,1017.333 8695.5,1004.365C8669.056,1017.351 8640.327,1025.049 8610.933,1027.025C8594.524,1051.493 8573.493,1072.524 8549.025,1088.933C8547.049,1118.327 8539.351,1147.056 8526.365,1173.5C8539.351,1199.944 8547.049,1228.673 8549.025,1258.067C8573.493,1274.476 8594.524,1295.507 8610.933,1319.975C8640.327,1321.951 8669.056,1329.649 8695.5,1342.635C8704.691,1338.121 8714.158,1334.247 8723.833,1331.029L8730.785,1356.974C8718.58,1361.142 8706.759,1366.5 8695.5,1373C8665.172,1355.49 8630.77,1346.272 8595.75,1346.272C8578.24,1315.944 8553.056,1290.76 8522.728,1273.25C8522.728,1238.23 8513.51,1203.828 8496,1173.5C8513.51,1143.172 8522.728,1108.77 8522.728,1073.75C8553.056,1056.24 8578.24,1031.056 8595.75,1000.728C8630.77,1000.728 8665.172,991.51 8695.5,974C8725.784,991.485 8760.132,1000.702 8795.1,1000.728L8779.945,1027.017Z" style="fill:rgb(0,62,49);"/>
            </g>
        </g>
        <g transform="matrix(1,0,0,1,12720.773364,5640)">
            <g transform="matrix(1.188569,0,0,1.188569,-15152.266891,-6919.029352)">
                <circle cx="13352.5" cy="7076.5" r="14.5" style="fill:rgb(0,85,68);"/>
                <g transform="matrix(0.841348,-0,-0,0.841348,12579.182846,6937.997786)">
                </g>
            </g>
            <g transform="matrix(1.188569,0,0,1.188569,-15305.041732,-6687.08068)">
                <circle cx="13352.5" cy="7076.5" r="14.5" style="fill:rgb(0,85,68);"/>
                <g transform="matrix(0.841348,-0,-0,0.841348,12707.719676,6742.848199)">
                </g>
            </g>
            <g transform="matrix(1.188569,0,0,1.188569,-15076.266891,-6919.029352)">
                <circle cx="13352.5" cy="7076.5" r="14.5" style="fill:rgb(0,85,68);"/>
                <g transform="matrix(0.841348,-0,-0,0.841348,12515.240386,6937.997786)">
                </g>
            </g>
        </g>
    </g>
    <defs>
        <radialGradient id="_Radial1" cx="0" cy="0" r="1" gradientUnits="userSpaceOnUse" gradientTransform="matrix(186.121596,0,0,113.892106,209.042796,1670.151706)"><stop offset="0" style="stop-color:white;stop-opacity:1"/><stop offset="1" style="stop-color:black;stop-opacity:1"/></radialGradient>
        <radialGradient id="_Radial2" cx="0" cy="0" r="1" gradientUnits="userSpaceOnUse" gradientTransform="matrix(186.121596,0,0,113.892106,209.042796,1670.151706)"><stop offset="0" style="stop-color:white;stop-opacity:1"/><stop offset="1" style="stop-color:black;stop-opacity:1"/></radialGradient>
        <radialGradient id="_Radial3" cx="0" cy="0" r="1" gradientUnits="userSpaceOnUse" gradientTransform="matrix(186.121596,0,0,113.892106,209.042796,1670.151706)"><stop offset="0" style="stop-color:white;stop-opacity:1"/><stop offset="1" style="stop-color:black;stop-opacity:1"/></radialGradient>
        <radialGradient id="_Radial4" cx="0" cy="0" r="1" gradientUnits="userSpaceOnUse" gradientTransform="matrix(186.121596,0,0,113.892106,209.042796,1670.151706)"><stop offset="0" style="stop-color:white;stop-opacity:1"/><stop offset="1" style="stop-color:black;stop-opacity:1"/></radialGradient>
        <radialGradient id="_Radial5" cx="0" cy="0" r="1" gradientUnits="userSpaceOnUse" gradientTransform="matrix(186.121596,0,0,113.892106,209.042796,1670.151706)"><stop offset="0" style="stop-color:white;stop-opacity:1"/><stop offset="1" style="stop-color:black;stop-opacity:1"/></radialGradient>
    </defs>
</svg>
