<?xml version="1.0" encoding="UTF-8" standalone="no"?>
<!DOCTYPE svg PUBLIC "-//W3C//DTD SVG 1.1//EN" "http://www.w3.org/Graphics/SVG/1.1/DTD/svg11.dtd">
<svg width="100%" height="100%" viewBox="0 0 629 380" version="1.1" xmlns="http://www.w3.org/2000/svg" xmlns:xlink="http://www.w3.org/1999/xlink" xml:space="preserve" xmlns:serif="http://www.serif.com/" style="fill-rule:evenodd;clip-rule:evenodd;stroke-linejoin:round;stroke-miterlimit:1.5;">
    <g transform="matrix(1,0,0,1,-13129.546727,-9308.642125)">
        <g transform="matrix(1,0,0,1,12720.773364,7834)">
            <g transform="matrix(1.687799,0,0,1.687799,370.086982,-1156.880617)">
                <g transform="matrix(1,0,0,1,-549,631)">
                    <path d="M571.921,1044L571.921,1030.151L618.146,972.389L572.68,972.389L572.68,958.245L637.608,958.245L637.608,972.094L591.223,1029.856L638.46,1029.856L638.46,1044L571.921,1044Z" style="fill:url(#_Radial1);"/>
                    <g transform="matrix(-1,0,0,1,1420.951175,107.326138)">
                        <path d="M571.921,1044L571.921,1030.151L618.146,972.389L572.68,972.389L572.68,958.245L637.608,958.245L637.608,972.094L591.223,1029.856L638.46,1029.856L638.46,1044L571.921,1044Z" style="fill:url(#_Radial2);"/>
                    </g>
                    <path d="M690.972,1046.044C682.75,1046.044 675.47,1044.181 669.131,1040.457C662.792,1036.732 657.822,1031.514 654.222,1024.803C650.621,1018.093 648.821,1010.282 648.821,1001.373C648.821,992.332 650.598,984.437 654.154,977.688C657.709,970.939 662.674,965.671 669.05,961.883C675.425,958.095 682.815,956.201 691.219,956.201C699.641,956.201 706.865,958.064 712.892,961.788C718.919,965.513 723.559,970.464 726.811,976.642C730.064,982.82 731.691,989.654 731.691,997.147C731.691,998.282 731.685,999.501 731.675,1000.803C731.664,1002.105 731.592,1003.541 731.459,1005.109L679.111,1005.109L679.111,993.099L714.726,993.099C714.419,985.965 712.048,980.387 707.613,976.364C703.179,972.341 697.642,970.33 691.004,970.33C686.442,970.33 682.223,971.368 678.347,973.445C674.47,975.521 671.362,978.581 669.022,982.624C666.682,986.668 665.512,991.747 665.512,997.863L665.512,1002.693C665.512,1009.01 666.676,1014.342 669.003,1018.687C671.331,1023.031 674.421,1026.312 678.275,1028.529C682.128,1030.746 686.34,1031.854 690.91,1031.854C696.385,1031.854 700.887,1030.664 704.416,1028.284C707.945,1025.904 710.551,1022.669 712.235,1018.58L729.282,1018.58C727.789,1023.803 725.289,1028.483 721.784,1032.621C718.28,1036.758 713.942,1040.029 708.772,1042.435C703.603,1044.841 697.669,1046.044 690.972,1046.044Z"/>
                    <g transform="matrix(1,0,0,1,212.473593,107)">
                        <path d="M690.972,1046.044C682.75,1046.044 675.47,1044.181 669.131,1040.457C662.792,1036.732 657.822,1031.514 654.222,1024.803C650.621,1018.093 648.821,1010.282 648.821,1001.373C648.821,992.332 650.598,984.437 654.154,977.688C657.709,970.939 662.674,965.671 669.05,961.883C675.425,958.095 682.815,956.201 691.219,956.201C699.641,956.201 706.865,958.064 712.892,961.788C718.919,965.513 723.559,970.464 726.811,976.642C730.064,982.82 731.691,989.654 731.691,997.147C731.691,998.282 731.685,999.501 731.675,1000.803C731.664,1002.105 731.592,1003.541 731.459,1005.109L679.111,1005.109L679.111,993.099L714.726,993.099C714.419,985.965 712.048,980.387 707.613,976.364C703.179,972.341 697.642,970.33 691.004,970.33C686.442,970.33 682.223,971.368 678.347,973.445C674.47,975.521 671.362,978.581 669.022,982.624C666.682,986.668 665.512,991.747 665.512,997.863L665.512,1002.693C665.512,1009.01 666.676,1014.342 669.003,1018.687C671.331,1023.031 674.421,1026.312 678.275,1028.529C682.128,1030.746 686.34,1031.854 690.91,1031.854C696.385,1031.854 700.887,1030.664 704.416,1028.284C707.945,1025.904 710.551,1022.669 712.235,1018.58L729.282,1018.58C727.789,1023.803 725.289,1028.483 721.784,1032.621C718.28,1036.758 713.942,1040.029 708.772,1042.435C703.603,1044.841 697.669,1046.044 690.972,1046.044Z"/>
                    </g>
                    <g transform="matrix(0.592488,0,0,0.59349,-7212.638606,-2049.827072)">
                        <rect x="13433.673" y="5068.446" width="28.742" height="325.332" style="fill:url(#_Radial3);"/>
                    </g>
                    <path d="M818.044,1044C812.663,1044 807.979,1043.158 803.992,1041.475C800.004,1039.791 796.939,1036.958 794.796,1032.977C792.653,1028.996 791.581,1023.603 791.581,1016.797L791.581,972.56L776.739,972.56L776.739,958.245L832.862,958.245L832.862,972.56L808.61,972.56L808.61,1016.858C808.61,1021.737 809.616,1025.056 811.628,1026.814C813.64,1028.572 817.162,1029.451 822.193,1029.451L832.029,1029.451L832.029,1044L818.044,1044Z" style="fill:url(#_Radial4);"/>
                    <g transform="matrix(1,0,0,-1,-107.326138,2109.571199)">
                        <path d="M818.044,1044C812.663,1044 807.979,1043.158 803.992,1041.475C800.004,1039.791 796.939,1036.958 794.796,1032.977C792.653,1028.996 791.581,1023.603 791.581,1016.797L791.581,972.56L776.739,972.56L776.739,958.245L832.862,958.245L832.862,972.56L808.61,972.56L808.61,1016.858C808.61,1021.737 809.616,1025.056 811.628,1026.814C813.64,1028.572 817.162,1029.451 822.193,1029.451L832.029,1029.451L832.029,1044L818.044,1044Z" style="fill:url(#_Radial5);"/>
                    </g>
                </g>
            </g>
        </g>
        <g transform="matrix(1,0,0,1,12720.773364,7834)">
            <g transform="matrix(1.188569,0,0,1.188569,-15152.266891,-6919.029352)">
                <circle cx="13352.5" cy="7076.5" r="14.5" style="fill:rgb(0,85,68);"/>
                <g transform="matrix(0.841348,-0,-0,0.841348,13092.252488,7062)">
                </g>
            </g>
            <g transform="matrix(1.188569,0,0,1.188569,-15305.041732,-6687.08068)">
                <circle cx="13352.5" cy="7076.5" r="14.5" style="fill:rgb(0,85,68);"/>
                <g transform="matrix(0.841348,-0,-0,0.841348,13220.789318,6866.850413)">
                </g>
            </g>
            <g transform="matrix(1.188569,0,0,1.188569,-15076.266891,-6919.029352)">
                <circle cx="13352.5" cy="7076.5" r="14.5" style="fill:rgb(0,85,68);"/>
                <g transform="matrix(0.841348,-0,-0,0.841348,13028.310028,7062)">
                </g>
            </g>
        </g>
    </g>
    <defs>
        <radialGradient id="_Radial1" cx="0" cy="0" r="1" gradientUnits="userSpaceOnUse" gradientTransform="matrix(186.121596,0,0,113.892106,209.042796,1670.151706)"><stop offset="0" style="stop-color:white;stop-opacity:1"/><stop offset="1" style="stop-color:black;stop-opacity:1"/></radialGradient>
        <radialGradient id="_Radial2" cx="0" cy="0" r="1" gradientUnits="userSpaceOnUse" gradientTransform="matrix(186.121596,0,0,113.892106,209.042796,1670.151706)"><stop offset="0" style="stop-color:white;stop-opacity:1"/><stop offset="1" style="stop-color:black;stop-opacity:1"/></radialGradient>
        <radialGradient id="_Radial3" cx="0" cy="0" r="1" gradientUnits="userSpaceOnUse" gradientTransform="matrix(186.121596,0,0,113.892106,209.042796,1670.151706)"><stop offset="0" style="stop-color:white;stop-opacity:1"/><stop offset="1" style="stop-color:black;stop-opacity:1"/></radialGradient>
        <radialGradient id="_Radial4" cx="0" cy="0" r="1" gradientUnits="userSpaceOnUse" gradientTransform="matrix(186.121596,0,0,113.892106,209.042796,1670.151706)"><stop offset="0" style="stop-color:white;stop-opacity:1"/><stop offset="1" style="stop-color:black;stop-opacity:1"/></radialGradient>
        <radialGradient id="_Radial5" cx="0" cy="0" r="1" gradientUnits="userSpaceOnUse" gradientTransform="matrix(186.121596,0,0,113.892106,209.042796,1670.151706)"><stop offset="0" style="stop-color:white;stop-opacity:1"/><stop offset="1" style="stop-color:black;stop-opacity:1"/></radialGradient>
    </defs>
</svg>
