<svg viewBox="0 0 475 475" fill="none" xmlns="http://www.w3.org/2000/svg">
<style>
@keyframes kf_dodeca_stack_3_transform_0 {
  0% {
    animation-timing-function: ease-in-out;
    transform: translateX(134px) translateY(224px) translateX(0px) translateY(-355px);
  }
  16.67% {
    transform: translateX(134px) translateY(224px) translateX(0px) translateY(0px);
  }
  50.1% {
    animation-timing-function: ease-in-out;
    transform: translateX(134px) translateY(224px) translateX(0px) translateY(0px);
  }
  66.77% {
    transform: translateX(134px) translateY(224px) translateX(0px) translateY(275px);
  }
  100% {
    transform: translateX(134px) translateY(224px) translateX(0px) translateY(275px);
  }
}
@keyframes kf_dodeca_stack_3_opacity_0 {
  0% {
    animation-timing-function: cubic-bezier(0.5, 0, 0.5, 1);
    opacity: 0;
  }
  16.67% {
    animation-timing-function: linear;
    opacity: 1;
  }
  50.1% {
    animation-timing-function: linear;
    opacity: 1;
  }
  66.77% {
    animation-timing-function: cubic-bezier(0.5, 0, 0.5, 1);
    opacity: 1;
  }
  83.36% {
    animation-timing-function: linear;
    opacity: 0;
  }
  100% {
    opacity: 0;
  }
}
#dodeca_stack_3 {
  transform-origin: 0 0;
  animation:
    kf_dodeca_stack_3_transform_0 2.4s linear infinite,
    kf_dodeca_stack_3_opacity_0 2.4s linear infinite;
}
@keyframes kf_dodeca_stack_2_transform_0 {
  0% {
    transform: translateX(134px) translateY(177px) translateX(0px) translateY(-308px);
  }
  16.67% {
    animation-timing-function: ease-in-out;
    transform: translateX(134px) translateY(177px) translateX(0px) translateY(-308px);
  }
  33.33% {
    transform: translateX(134px) translateY(177px) translateX(0px) translateY(0px);
  }
  66.69% {
    animation-timing-function: ease-in-out;
    transform: translateX(134px) translateY(177px) translateX(0px) translateY(0px);
  }
  83.36% {
    transform: translateX(134px) translateY(177px) translateX(0px) translateY(322px);
  }
  100% {
    transform: translateX(134px) translateY(177px) translateX(0px) translateY(322px);
  }
}
@keyframes kf_dodeca_stack_2_opacity_0 {
  0% {
    animation-timing-function: linear;
    opacity: 0;
  }
  16.67% {
    animation-timing-function: cubic-bezier(0.5, 0, 0.5, 1);
    opacity: 0;
  }
  33.33% {
    animation-timing-function: linear;
    opacity: 1;
  }
  66.69% {
    animation-timing-function: cubic-bezier(0.5, 0, 0.5, 1);
    opacity: 1;
  }
  83.36% {
    animation-timing-function: linear;
    opacity: 0;
  }
  100% {
    opacity: 0;
  }
}
#dodeca_stack_2 {
  transform-origin: 0 0;
  animation:
    kf_dodeca_stack_2_transform_0 2.4s linear infinite,
    kf_dodeca_stack_2_opacity_0 2.4s linear infinite;
}
@keyframes kf_dodeca_stack_1_transform_0 {
  0% {
    transform: translateX(134px) translateY(130px) translateX(0px) translateY(-261px);
  }
  33.33% {
    animation-timing-function: ease-in-out;
    transform: translateX(134px) translateY(130px) translateX(0px) translateY(-261px);
  }
  50% {
    transform: translateX(134px) translateY(130px) translateX(0px) translateY(0px);
  }
  83.36% {
    animation-timing-function: ease-in-out;
    transform: translateX(134px) translateY(130px) translateX(0px) translateY(0px);
  }
  99.85% {
    transform: translateX(134px) translateY(130px) translateX(0px) translateY(369px);
  }
  100% {
    transform: translateX(134px) translateY(130px) translateX(0px) translateY(369px);
  }
}
@keyframes kf_dodeca_stack_1_opacity_0 {
  0% {
    animation-timing-function: linear;
    opacity: 0;
  }
  33.33% {
    animation-timing-function: cubic-bezier(0.5, 0, 0.5, 1);
    opacity: 0;
  }
  50% {
    animation-timing-function: linear;
    opacity: 1;
  }
  83.36% {
    animation-timing-function: cubic-bezier(0.5, 0, 0.5, 1);
    opacity: 1;
  }
  93.75% {
    animation-timing-function: cubic-bezier(0.5, 0, 0.5, 1);
    opacity: 0;
  }
  99.85% {
    animation-timing-function: linear;
    opacity: 1;
  }
  100% {
    opacity: 1;
  }
}
#dodeca_stack_1 {
  transform-origin: 0 0;
  animation:
    kf_dodeca_stack_1_transform_0 2.4s linear infinite,
    kf_dodeca_stack_1_opacity_0 2.4s linear infinite;
}
</style>
<g id="stack_loop" clip-path="url(#clip0_1480_1848)">
<g id="dodeca_stack_3" filter="url(#filter0_d_1480_1848)" transform="translate(134 224)">
<g id="Artboard1" transform="translate(2.79829 -46.1125)">
<g id="Group">
<g id="Group_2" transform="translate(-2.93786e-08 13.7372)">
<g id="Group_3">
<g id="Group_4" transform="matrix(0.708741 0.705469 -0.708741 0.705469 101.202 0)">
<path id="Vector" fill-rule="evenodd" clip-rule="evenodd" d="M94.3002 5.39115C96.3471 4.18406 98.2172 3.50479 99.7438 3.31038C108.254 2.22688 116.764 1.14337 125.274 0.0598662C126.96 -0.154867 128.189 0.221008 128.948 0.979786C133.236 5.2674 137.523 9.55516 141.811 13.8428C142.571 14.6024 142.945 15.8326 142.731 17.5168C141.647 26.0268 140.564 34.537 139.48 43.047C139.287 44.5688 138.61 46.4384 137.4 48.4907C131.235 58.9428 125.071 69.395 118.906 79.8471C117.76 81.7915 116.202 83.7825 114.383 85.6018C104.789 95.1954 95.1954 104.789 85.6017 114.383C83.7824 116.202 81.7915 117.76 79.8471 118.906C69.395 125.071 58.9427 131.235 48.4906 137.4C46.4438 138.607 44.5737 139.286 43.0469 139.48C34.5369 140.564 26.0268 141.647 17.5168 142.731C15.8307 142.946 14.6015 142.57 13.8427 141.811C9.55512 137.523 5.26736 133.236 0.979748 128.948C0.219987 128.188 -0.154576 126.958 0.059829 125.274C1.14333 116.764 2.22684 108.254 3.31034 99.7438C3.50426 98.222 4.18074 96.3525 5.39112 94.3003C11.5556 83.848 17.7201 73.3959 23.8845 62.9437C25.0313 60.9993 26.589 59.0083 28.4082 57.189C38.0018 47.5955 47.5955 38.0019 57.189 28.4082C59.0083 26.5891 60.9992 25.0314 62.9436 23.8846C73.3959 17.7201 83.848 11.5556 94.3002 5.39115Z" fill="black"/>
<path id="Vector_2" fill-rule="evenodd" clip-rule="evenodd" d="M94.3002 5.39115C96.3471 4.18406 98.2172 3.50479 99.7438 3.31038C108.254 2.22688 116.764 1.14337 125.274 0.0598662C126.96 -0.154867 128.189 0.221008 128.948 0.979786C133.236 5.2674 137.523 9.55516 141.811 13.8428C142.571 14.6024 142.945 15.8326 142.731 17.5168C141.647 26.0268 140.564 34.537 139.48 43.047C139.287 44.5688 138.61 46.4384 137.4 48.4907C131.235 58.9428 125.071 69.395 118.906 79.8471C117.76 81.7915 116.202 83.7825 114.383 85.6018C104.789 95.1954 95.1954 104.789 85.6017 114.383C83.7824 116.202 81.7915 117.76 79.8471 118.906C69.395 125.071 58.9427 131.235 48.4906 137.4C46.4438 138.607 44.5737 139.286 43.0469 139.48C34.5369 140.564 26.0268 141.647 17.5168 142.731C15.8307 142.946 14.6015 142.57 13.8427 141.811C9.55512 137.523 5.26736 133.236 0.979748 128.948C0.219987 128.188 -0.154576 126.958 0.059829 125.274C1.14333 116.764 2.22684 108.254 3.31034 99.7438C3.50426 98.222 4.18074 96.3525 5.39112 94.3003C11.5556 83.848 17.7201 73.3959 23.8845 62.9437C25.0313 60.9993 26.589 59.0083 28.4082 57.189C38.0018 47.5955 47.5955 38.0019 57.189 28.4082C59.0083 26.5891 60.9992 25.0314 62.9436 23.8846C73.3959 17.7201 83.848 11.5556 94.3002 5.39115ZM94.1911 6.24794C83.739 12.4124 73.2867 18.5769 62.8346 24.7414C61.0835 25.7741 59.2774 27.1833 57.6207 28.84C48.0271 38.4336 38.4336 48.0271 28.84 57.6208C27.1849 59.2758 25.7753 61.0814 24.7413 62.8347C18.5769 73.2868 12.4124 83.739 6.24791 94.1911C5.14719 96.0573 4.53759 97.7506 4.36268 99.1232C3.27918 107.633 2.19569 116.143 1.11219 124.653C0.913523 126.214 1.27807 127.315 1.94555 127.982C6.23332 132.27 10.5209 136.558 14.8087 140.845C15.4762 141.513 16.5771 141.877 18.1374 141.679C26.6476 140.595 35.1575 139.512 43.6677 138.428C45.0393 138.254 46.7325 137.644 48.5997 136.543C59.0519 130.378 69.504 124.214 79.9561 118.05C81.7074 117.017 83.5133 115.608 85.17 113.951C94.7637 104.357 104.357 94.7637 113.951 85.17C115.606 83.5151 117.016 81.7095 118.05 79.9561C124.214 69.504 130.378 59.0519 136.543 48.5997C137.643 46.7335 138.253 45.0402 138.428 43.6677C139.512 35.1576 140.595 26.6476 141.679 18.1374C141.877 16.5771 141.513 15.4762 140.845 14.8088C136.558 10.521 132.27 6.23336 127.982 1.94559C127.315 1.27811 126.214 0.91356 124.653 1.11223C116.143 2.19573 107.633 3.27922 99.1232 4.36272C97.7514 4.53746 96.0583 5.14674 94.1911 6.24794Z" fill="black" fill-opacity="0.99"/>
</g>
</g>
</g>
<g id="Group_5">
<g id="Group_6">
<g id="Group_7" transform="matrix(0.708741 0.705469 -0.708741 0.705469 101.202 0)">
<path id="Vector_3" fill-rule="evenodd" clip-rule="evenodd" d="M94.3002 5.39115C96.3471 4.18406 98.2172 3.50479 99.7438 3.31038C108.254 2.22688 116.764 1.14337 125.274 0.0598662C126.96 -0.154867 128.189 0.221008 128.948 0.979786C133.236 5.2674 137.523 9.55516 141.811 13.8428C142.571 14.6024 142.945 15.8326 142.731 17.5168C141.647 26.0268 140.564 34.537 139.48 43.047C139.287 44.5688 138.61 46.4384 137.4 48.4907C131.235 58.9428 125.071 69.395 118.906 79.8471C117.76 81.7915 116.202 83.7825 114.383 85.6018C104.789 95.1954 95.1954 104.789 85.6017 114.383C83.7824 116.202 81.7915 117.76 79.8471 118.906C69.395 125.071 58.9427 131.235 48.4906 137.4C46.4438 138.607 44.5737 139.286 43.0469 139.48C34.5369 140.564 26.0268 141.647 17.5168 142.731C15.8307 142.946 14.6015 142.57 13.8427 141.811C9.55512 137.523 5.26736 133.236 0.979748 128.948C0.219987 128.188 -0.154576 126.958 0.059829 125.274C1.14333 116.764 2.22684 108.254 3.31034 99.7438C3.50426 98.222 4.18074 96.3525 5.39112 94.3003C11.5556 83.848 17.7201 73.3959 23.8845 62.9437C25.0313 60.9993 26.589 59.0083 28.4082 57.189C38.0018 47.5955 47.5955 38.0019 57.189 28.4082C59.0083 26.5891 60.9992 25.0314 62.9436 23.8846C73.3959 17.7201 83.848 11.5556 94.3002 5.39115Z" fill="#005544"/>
<path id="Vector_4" fill-rule="evenodd" clip-rule="evenodd" d="M94.3002 5.39115C96.3471 4.18406 98.2172 3.50479 99.7438 3.31038C108.254 2.22688 116.764 1.14337 125.274 0.0598662C126.96 -0.154867 128.189 0.221008 128.948 0.979786C133.236 5.2674 137.523 9.55516 141.811 13.8428C142.571 14.6024 142.945 15.8326 142.731 17.5168C141.647 26.0268 140.564 34.537 139.48 43.047C139.287 44.5688 138.61 46.4384 137.4 48.4907C131.235 58.9428 125.071 69.395 118.906 79.8471C117.76 81.7915 116.202 83.7825 114.383 85.6018C104.789 95.1954 95.1954 104.789 85.6017 114.383C83.7824 116.202 81.7915 117.76 79.8471 118.906C69.395 125.071 58.9427 131.235 48.4906 137.4C46.4438 138.607 44.5737 139.286 43.0469 139.48C34.5369 140.564 26.0268 141.647 17.5168 142.731C15.8307 142.946 14.6015 142.57 13.8427 141.811C9.55512 137.523 5.26736 133.236 0.979748 128.948C0.219987 128.188 -0.154576 126.958 0.059829 125.274C1.14333 116.764 2.22684 108.254 3.31034 99.7438C3.50426 98.222 4.18074 96.3525 5.39112 94.3003C11.5556 83.848 17.7201 73.3959 23.8845 62.9437C25.0313 60.9993 26.589 59.0083 28.4082 57.189C38.0018 47.5955 47.5955 38.0019 57.189 28.4082C59.0083 26.5891 60.9992 25.0314 62.9436 23.8846C73.3959 17.7201 83.848 11.5556 94.3002 5.39115ZM94.1911 6.24794C83.739 12.4124 73.2867 18.5769 62.8346 24.7414C61.0835 25.7741 59.2774 27.1833 57.6207 28.84C48.0271 38.4336 38.4336 48.0271 28.84 57.6208C27.1849 59.2758 25.7753 61.0814 24.7413 62.8347C18.5769 73.2868 12.4124 83.739 6.24791 94.1911C5.14719 96.0573 4.53759 97.7506 4.36268 99.1232C3.27918 107.633 2.19569 116.143 1.11219 124.653C0.913523 126.214 1.27807 127.315 1.94555 127.982C6.23332 132.27 10.5209 136.558 14.8087 140.845C15.4762 141.513 16.5771 141.877 18.1374 141.679C26.6476 140.595 35.1575 139.512 43.6677 138.428C45.0393 138.254 46.7325 137.644 48.5997 136.543C59.0519 130.378 69.504 124.214 79.9561 118.05C81.7074 117.017 83.5133 115.608 85.17 113.951C94.7637 104.357 104.357 94.7637 113.951 85.17C115.606 83.5151 117.016 81.7095 118.05 79.9561C124.214 69.504 130.378 59.0519 136.543 48.5997C137.643 46.7335 138.253 45.0402 138.428 43.6677C139.512 35.1576 140.595 26.6476 141.679 18.1374C141.877 16.5771 141.513 15.4762 140.845 14.8088C136.558 10.521 132.27 6.23336 127.982 1.94559C127.315 1.27811 126.214 0.91356 124.653 1.11223C116.143 2.19573 107.633 3.27922 99.1232 4.36272C97.7514 4.53746 96.0583 5.14674 94.1911 6.24794Z" fill="black" fill-opacity="0.99"/>
</g>
</g>
</g>
</g>
</g>
</g>
<g id="dodeca_stack_2" filter="url(#filter1_d_1480_1848)" transform="translate(134 177)">
<g id="Artboard1_2" transform="translate(2.79829 -46.1125)">
<g id="Group_8">
<g id="Group_9" transform="translate(-2.93786e-08 13.7372)">
<g id="Group_10" transform="translate(0.000556961)">
<g id="Group_11" transform="matrix(0.708741 0.705469 -0.708741 0.705469 101.201 0)">
<path id="Vector_5" fill-rule="evenodd" clip-rule="evenodd" d="M94.3002 5.39115C96.3471 4.18406 98.2172 3.50479 99.7438 3.31038C108.254 2.22688 116.764 1.14337 125.274 0.0598662C126.96 -0.154867 128.189 0.221008 128.948 0.979786C133.236 5.2674 137.523 9.55516 141.811 13.8428C142.571 14.6024 142.945 15.8326 142.731 17.5168C141.647 26.0268 140.564 34.537 139.48 43.047C139.287 44.5688 138.61 46.4384 137.4 48.4907C131.235 58.9428 125.071 69.395 118.906 79.8471C117.76 81.7915 116.202 83.7825 114.383 85.6018C104.789 95.1954 95.1954 104.789 85.6017 114.383C83.7824 116.202 81.7915 117.76 79.8471 118.906C69.395 125.071 58.9427 131.235 48.4906 137.4C46.4438 138.607 44.5737 139.286 43.0469 139.48C34.5369 140.564 26.0268 141.647 17.5168 142.731C15.8307 142.946 14.6015 142.57 13.8427 141.811C9.55512 137.523 5.26736 133.236 0.979748 128.948C0.219987 128.188 -0.154576 126.958 0.059829 125.274C1.14333 116.764 2.22684 108.254 3.31034 99.7438C3.50426 98.222 4.18074 96.3525 5.39112 94.3003C11.5556 83.848 17.7201 73.3959 23.8845 62.9437C25.0313 60.9993 26.589 59.0083 28.4082 57.189C38.0018 47.5955 47.5955 38.0019 57.189 28.4082C59.0083 26.5891 60.9992 25.0314 62.9436 23.8846C73.3959 17.7201 83.848 11.5556 94.3002 5.39115Z" fill="black"/>
<path id="Vector_6" fill-rule="evenodd" clip-rule="evenodd" d="M94.3002 5.39115C96.3471 4.18406 98.2172 3.50479 99.7438 3.31038C108.254 2.22688 116.764 1.14337 125.274 0.0598662C126.96 -0.154867 128.189 0.221008 128.948 0.979786C133.236 5.2674 137.523 9.55516 141.811 13.8428C142.571 14.6024 142.945 15.8326 142.731 17.5168C141.647 26.0268 140.564 34.537 139.48 43.047C139.287 44.5688 138.61 46.4384 137.4 48.4907C131.235 58.9428 125.071 69.395 118.906 79.8471C117.76 81.7915 116.202 83.7825 114.383 85.6018C104.789 95.1954 95.1954 104.789 85.6017 114.383C83.7824 116.202 81.7915 117.76 79.8471 118.906C69.395 125.071 58.9427 131.235 48.4906 137.4C46.4438 138.607 44.5737 139.286 43.0469 139.48C34.5369 140.564 26.0268 141.647 17.5168 142.731C15.8307 142.946 14.6015 142.57 13.8427 141.811C9.55512 137.523 5.26736 133.236 0.979748 128.948C0.219987 128.188 -0.154576 126.958 0.059829 125.274C1.14333 116.764 2.22684 108.254 3.31034 99.7438C3.50426 98.222 4.18074 96.3525 5.39112 94.3003C11.5556 83.848 17.7201 73.3959 23.8845 62.9437C25.0313 60.9993 26.589 59.0083 28.4082 57.189C38.0018 47.5955 47.5955 38.0019 57.189 28.4082C59.0083 26.5891 60.9992 25.0314 62.9436 23.8846C73.3959 17.7201 83.848 11.5556 94.3002 5.39115ZM94.1911 6.24794C83.739 12.4124 73.2867 18.5769 62.8346 24.7414C61.0835 25.7741 59.2774 27.1833 57.6207 28.84C48.0271 38.4336 38.4336 48.0271 28.84 57.6208C27.1849 59.2758 25.7753 61.0814 24.7413 62.8347C18.5769 73.2868 12.4124 83.739 6.24791 94.1911C5.14719 96.0573 4.53759 97.7506 4.36268 99.1232C3.27918 107.633 2.19569 116.143 1.11219 124.653C0.913523 126.214 1.27807 127.315 1.94555 127.982C6.23332 132.27 10.5209 136.558 14.8087 140.845C15.4762 141.513 16.5771 141.877 18.1374 141.679C26.6476 140.595 35.1575 139.512 43.6677 138.428C45.0393 138.254 46.7325 137.644 48.5997 136.543C59.0519 130.378 69.504 124.214 79.9561 118.05C81.7074 117.017 83.5133 115.608 85.17 113.951C94.7637 104.357 104.357 94.7637 113.951 85.17C115.606 83.5151 117.016 81.7095 118.05 79.9561C124.214 69.504 130.378 59.0519 136.543 48.5997C137.643 46.7335 138.253 45.0402 138.428 43.6677C139.512 35.1576 140.595 26.6476 141.679 18.1374C141.877 16.5771 141.513 15.4762 140.845 14.8088C136.558 10.521 132.27 6.23336 127.982 1.94559C127.315 1.27811 126.214 0.91356 124.653 1.11223C116.143 2.19573 107.633 3.27922 99.1232 4.36272C97.7514 4.53746 96.0583 5.14674 94.1911 6.24794Z" fill="black" fill-opacity="0.99"/>
</g>
</g>
</g>
<g id="Group_12">
<g id="Group_13" transform="translate(0.000556932 -1.82042e-06)">
<g id="Group_14" transform="matrix(0.708741 0.705469 -0.708741 0.705469 101.201 0)">
<path id="Vector_7" fill-rule="evenodd" clip-rule="evenodd" d="M94.3002 5.39115C96.3471 4.18406 98.2172 3.50479 99.7438 3.31038C108.254 2.22688 116.764 1.14337 125.274 0.0598662C126.96 -0.154867 128.189 0.221008 128.948 0.979786C133.236 5.2674 137.523 9.55516 141.811 13.8428C142.571 14.6024 142.945 15.8326 142.731 17.5168C141.647 26.0268 140.564 34.537 139.48 43.047C139.287 44.5688 138.61 46.4384 137.4 48.4907C131.235 58.9428 125.071 69.395 118.906 79.8471C117.76 81.7915 116.202 83.7825 114.383 85.6018C104.789 95.1954 95.1954 104.789 85.6017 114.383C83.7824 116.202 81.7915 117.76 79.8471 118.906C69.395 125.071 58.9427 131.235 48.4906 137.4C46.4438 138.607 44.5737 139.286 43.0469 139.48C34.5369 140.564 26.0268 141.647 17.5168 142.731C15.8307 142.946 14.6015 142.57 13.8427 141.811C9.55512 137.523 5.26736 133.236 0.979748 128.948C0.219987 128.188 -0.154576 126.958 0.059829 125.274C1.14333 116.764 2.22684 108.254 3.31034 99.7438C3.50426 98.222 4.18074 96.3525 5.39112 94.3003C11.5556 83.848 17.7201 73.3959 23.8845 62.9437C25.0313 60.9993 26.589 59.0083 28.4082 57.189C38.0018 47.5955 47.5955 38.0019 57.189 28.4082C59.0083 26.5891 60.9992 25.0314 62.9436 23.8846C73.3959 17.7201 83.848 11.5556 94.3002 5.39115Z" fill="#005544"/>
<path id="Vector_8" fill-rule="evenodd" clip-rule="evenodd" d="M94.3002 5.39115C96.3471 4.18406 98.2172 3.50479 99.7438 3.31038C108.254 2.22688 116.764 1.14337 125.274 0.0598662C126.96 -0.154867 128.189 0.221008 128.948 0.979786C133.236 5.2674 137.523 9.55516 141.811 13.8428C142.571 14.6024 142.945 15.8326 142.731 17.5168C141.647 26.0268 140.564 34.537 139.48 43.047C139.287 44.5688 138.61 46.4384 137.4 48.4907C131.235 58.9428 125.071 69.395 118.906 79.8471C117.76 81.7915 116.202 83.7825 114.383 85.6018C104.789 95.1954 95.1954 104.789 85.6017 114.383C83.7824 116.202 81.7915 117.76 79.8471 118.906C69.395 125.071 58.9427 131.235 48.4906 137.4C46.4438 138.607 44.5737 139.286 43.0469 139.48C34.5369 140.564 26.0268 141.647 17.5168 142.731C15.8307 142.946 14.6015 142.57 13.8427 141.811C9.55512 137.523 5.26736 133.236 0.979748 128.948C0.219987 128.188 -0.154576 126.958 0.059829 125.274C1.14333 116.764 2.22684 108.254 3.31034 99.7438C3.50426 98.222 4.18074 96.3525 5.39112 94.3003C11.5556 83.848 17.7201 73.3959 23.8845 62.9437C25.0313 60.9993 26.589 59.0083 28.4082 57.189C38.0018 47.5955 47.5955 38.0019 57.189 28.4082C59.0083 26.5891 60.9992 25.0314 62.9436 23.8846C73.3959 17.7201 83.848 11.5556 94.3002 5.39115ZM94.1911 6.24794C83.739 12.4124 73.2867 18.5769 62.8346 24.7414C61.0835 25.7741 59.2774 27.1833 57.6207 28.84C48.0271 38.4336 38.4336 48.0271 28.84 57.6208C27.1849 59.2758 25.7753 61.0814 24.7413 62.8347C18.5769 73.2868 12.4124 83.739 6.24791 94.1911C5.14719 96.0573 4.53759 97.7506 4.36268 99.1232C3.27918 107.633 2.19569 116.143 1.11219 124.653C0.913523 126.214 1.27807 127.315 1.94555 127.982C6.23332 132.27 10.5209 136.558 14.8087 140.845C15.4762 141.513 16.5771 141.877 18.1374 141.679C26.6476 140.595 35.1575 139.512 43.6677 138.428C45.0393 138.254 46.7325 137.644 48.5997 136.543C59.0519 130.378 69.504 124.214 79.9561 118.05C81.7074 117.017 83.5133 115.608 85.17 113.951C94.7637 104.357 104.357 94.7637 113.951 85.17C115.606 83.5151 117.016 81.7095 118.05 79.9561C124.214 69.504 130.378 59.0519 136.543 48.5997C137.643 46.7335 138.253 45.0402 138.428 43.6677C139.512 35.1576 140.595 26.6476 141.679 18.1374C141.877 16.5771 141.513 15.4762 140.845 14.8088C136.558 10.521 132.27 6.23336 127.982 1.94559C127.315 1.27811 126.214 0.91356 124.653 1.11223C116.143 2.19573 107.633 3.27922 99.1232 4.36272C97.7514 4.53746 96.0583 5.14674 94.1911 6.24794Z" fill="black" fill-opacity="0.99"/>
</g>
</g>
</g>
</g>
</g>
</g>
<g id="dodeca_stack_1" filter="url(#filter2_d_1480_1848)" transform="translate(134 130)">
<g id="Artboard1_3" transform="translate(2.79829 -46.1125)">
<g id="Group_15">
<g id="Group_16" transform="translate(-2.93786e-08 13.7372)">
<g id="Group_17" transform="translate(0.000772132)">
<g id="Group_18" transform="matrix(0.708741 0.705469 -0.708741 0.705469 101.201 0)">
<g id="Vector_9">
<path fill-rule="evenodd" clip-rule="evenodd" d="M94.3002 5.39115C96.3471 4.18406 98.2172 3.50479 99.7438 3.31038C108.254 2.22688 116.764 1.14337 125.274 0.0598662C126.96 -0.154867 128.189 0.221008 128.948 0.979786C133.236 5.2674 137.523 9.55516 141.811 13.8428C142.571 14.6024 142.945 15.8326 142.731 17.5168C141.647 26.0268 140.564 34.537 139.48 43.047C139.287 44.5688 138.61 46.4384 137.4 48.4907C131.235 58.9428 125.071 69.395 118.906 79.8471C117.76 81.7915 116.202 83.7825 114.383 85.6018C104.789 95.1954 95.1954 104.789 85.6017 114.383C83.7824 116.202 81.7915 117.76 79.8471 118.906C69.395 125.071 58.9427 131.235 48.4906 137.4C46.4438 138.607 44.5737 139.286 43.0469 139.48C34.5369 140.564 26.0268 141.647 17.5168 142.731C15.8307 142.946 14.6015 142.57 13.8427 141.811C9.55512 137.523 5.26736 133.236 0.979748 128.948C0.219987 128.188 -0.154576 126.958 0.059829 125.274C1.14333 116.764 2.22684 108.254 3.31034 99.7438C3.50426 98.222 4.18074 96.3525 5.39112 94.3003C11.5556 83.848 17.7201 73.3959 23.8845 62.9437C25.0313 60.9993 26.589 59.0083 28.4082 57.189C38.0018 47.5955 47.5955 38.0019 57.189 28.4082C59.0083 26.5891 60.9992 25.0314 62.9436 23.8846C73.3959 17.7201 83.848 11.5556 94.3002 5.39115Z" id="Vector_9_bg_0" fill="black">
</path>
<path d="M125.337 0.555664C126.925 0.353338 127.98 0.718224 128.595 1.33301L141.458 14.1963C142.073 14.8118 142.437 15.8672 142.235 17.4541C141.152 25.9638 140.068 34.4737 138.984 42.9834C138.802 44.4185 138.156 46.2233 136.969 48.2363C133.887 53.4624 130.805 58.689 127.723 63.915C124.641 69.1411 121.558 74.3668 118.476 79.5928C117.352 81.4971 115.822 83.4554 114.029 85.248L85.248 114.029C83.4554 115.822 81.4971 117.352 79.5928 118.476C74.3668 121.558 69.1411 124.64 63.915 127.723C58.689 130.805 53.4624 133.887 48.2363 136.969C46.2285 138.153 44.4233 138.801 42.9834 138.984C34.4737 140.068 25.9638 141.152 17.4541 142.235C15.9648 142.425 14.9446 142.116 14.3164 141.57L14.1963 141.458L1.33301 128.595C0.717373 127.979 0.353624 126.924 0.555664 125.337C1.09739 121.082 1.63893 116.827 2.18066 112.572C2.72242 108.317 3.26489 104.062 3.80664 99.8066C3.9896 98.3715 4.63513 96.5676 5.82227 94.5547C8.90449 89.3286 11.9861 84.102 15.0684 78.876C18.1506 73.6499 21.2332 68.4234 24.3154 63.1973C25.4386 61.293 26.9694 59.3355 28.7617 57.543C38.3554 47.9495 47.9495 38.3554 57.543 28.7617C59.3355 26.9694 61.293 25.4386 63.1973 24.3154C68.4234 21.2332 73.6499 18.1506 78.876 15.0684C84.102 11.9861 89.3286 8.90448 94.5547 5.82227C96.5624 4.63827 98.367 3.99005 99.8066 3.80664C104.062 3.26489 108.317 2.72242 112.572 2.18066C116.827 1.63893 121.082 1.09739 125.337 0.555664Z" stroke="black" stroke-opacity="0.99"/>
</g>
<path id="Vector_10" fill-rule="evenodd" clip-rule="evenodd" d="M94.3002 5.39115C96.3471 4.18406 98.2172 3.50479 99.7438 3.31038C108.254 2.22688 116.764 1.14337 125.274 0.0598662C126.96 -0.154867 128.189 0.221008 128.948 0.979786C133.236 5.2674 137.523 9.55516 141.811 13.8428C142.571 14.6024 142.945 15.8326 142.731 17.5168C141.647 26.0268 140.564 34.537 139.48 43.047C139.287 44.5688 138.61 46.4384 137.4 48.4907C131.235 58.9428 125.071 69.395 118.906 79.8471C117.76 81.7915 116.202 83.7825 114.383 85.6018C104.789 95.1954 95.1954 104.789 85.6017 114.383C83.7824 116.202 81.7915 117.76 79.8471 118.906C69.395 125.071 58.9427 131.235 48.4906 137.4C46.4438 138.607 44.5737 139.286 43.0469 139.48C34.5369 140.564 26.0268 141.647 17.5168 142.731C15.8307 142.946 14.6015 142.57 13.8427 141.811C9.55512 137.523 5.26736 133.236 0.979748 128.948C0.219987 128.188 -0.154576 126.958 0.059829 125.274C1.14333 116.764 2.22684 108.254 3.31034 99.7438C3.50426 98.222 4.18074 96.3525 5.39112 94.3003C11.5556 83.848 17.7201 73.3959 23.8845 62.9437C25.0313 60.9993 26.589 59.0083 28.4082 57.189C38.0018 47.5955 47.5955 38.0019 57.189 28.4082C59.0083 26.5891 60.9992 25.0314 62.9436 23.8846C73.3959 17.7201 83.848 11.5556 94.3002 5.39115ZM94.1911 6.24794C83.739 12.4124 73.2867 18.5769 62.8346 24.7414C61.0835 25.7741 59.2774 27.1833 57.6207 28.84C48.0271 38.4336 38.4336 48.0271 28.84 57.6208C27.1849 59.2758 25.7753 61.0814 24.7413 62.8347C18.5769 73.2868 12.4124 83.739 6.24791 94.1911C5.14719 96.0573 4.53759 97.7506 4.36268 99.1232C3.27918 107.633 2.19569 116.143 1.11219 124.653C0.913523 126.214 1.27807 127.315 1.94555 127.982C6.23332 132.27 10.5209 136.558 14.8087 140.845C15.4762 141.513 16.5771 141.877 18.1374 141.679C26.6476 140.595 35.1575 139.512 43.6677 138.428C45.0393 138.254 46.7325 137.644 48.5997 136.543C59.0519 130.378 69.504 124.214 79.9561 118.05C81.7074 117.017 83.5133 115.608 85.17 113.951C94.7637 104.357 104.357 94.7637 113.951 85.17C115.606 83.5151 117.016 81.7095 118.05 79.9561C124.214 69.504 130.378 59.0519 136.543 48.5997C137.643 46.7335 138.253 45.0402 138.428 43.6677C139.512 35.1576 140.595 26.6476 141.679 18.1374C141.877 16.5771 141.513 15.4762 140.845 14.8088C136.558 10.521 132.27 6.23336 127.982 1.94559C127.315 1.27811 126.214 0.91356 124.653 1.11223C116.143 2.19573 107.633 3.27922 99.1232 4.36272C97.7514 4.53746 96.0583 5.14674 94.1911 6.24794Z" fill="black" fill-opacity="0.99"/>
</g>
</g>
</g>
<g id="Group_19">
<g id="Group_20" transform="translate(0.000772103 -1.82042e-06)">
<g id="Group_21" transform="matrix(0.708741 0.705469 -0.708741 0.705469 101.201 0)">
<path id="Vector_11" fill-rule="evenodd" clip-rule="evenodd" d="M94.3002 5.39115C96.3471 4.18406 98.2172 3.50479 99.7438 3.31038C108.254 2.22688 116.764 1.14337 125.274 0.0598662C126.96 -0.154867 128.189 0.221008 128.948 0.979786C133.236 5.2674 137.523 9.55516 141.811 13.8428C142.571 14.6024 142.945 15.8326 142.731 17.5168C141.647 26.0268 140.564 34.537 139.48 43.047C139.287 44.5688 138.61 46.4384 137.4 48.4907C131.235 58.9428 125.071 69.395 118.906 79.8471C117.76 81.7915 116.202 83.7825 114.383 85.6018C104.789 95.1954 95.1954 104.789 85.6017 114.383C83.7824 116.202 81.7915 117.76 79.8471 118.906C69.395 125.071 58.9427 131.235 48.4906 137.4C46.4438 138.607 44.5737 139.286 43.0469 139.48C34.5369 140.564 26.0268 141.647 17.5168 142.731C15.8307 142.946 14.6015 142.57 13.8427 141.811C9.55512 137.523 5.26736 133.236 0.979748 128.948C0.219987 128.188 -0.154576 126.958 0.059829 125.274C1.14333 116.764 2.22684 108.254 3.31034 99.7438C3.50426 98.222 4.18074 96.3525 5.39112 94.3003C11.5556 83.848 17.7201 73.3959 23.8845 62.9437C25.0313 60.9993 26.589 59.0083 28.4082 57.189C38.0018 47.5955 47.5955 38.0019 57.189 28.4082C59.0083 26.5891 60.9992 25.0314 62.9436 23.8846C73.3959 17.7201 83.848 11.5556 94.3002 5.39115Z" fill="#005544"/>
<path id="Vector_12" fill-rule="evenodd" clip-rule="evenodd" d="M94.3002 5.39115C96.3471 4.18406 98.2172 3.50479 99.7438 3.31038C108.254 2.22688 116.764 1.14337 125.274 0.0598662C126.96 -0.154867 128.189 0.221008 128.948 0.979786C133.236 5.2674 137.523 9.55516 141.811 13.8428C142.571 14.6024 142.945 15.8326 142.731 17.5168C141.647 26.0268 140.564 34.537 139.48 43.047C139.287 44.5688 138.61 46.4384 137.4 48.4907C131.235 58.9428 125.071 69.395 118.906 79.8471C117.76 81.7915 116.202 83.7825 114.383 85.6018C104.789 95.1954 95.1954 104.789 85.6017 114.383C83.7824 116.202 81.7915 117.76 79.8471 118.906C69.395 125.071 58.9427 131.235 48.4906 137.4C46.4438 138.607 44.5737 139.286 43.0469 139.48C34.5369 140.564 26.0268 141.647 17.5168 142.731C15.8307 142.946 14.6015 142.57 13.8427 141.811C9.55512 137.523 5.26736 133.236 0.979748 128.948C0.219987 128.188 -0.154576 126.958 0.059829 125.274C1.14333 116.764 2.22684 108.254 3.31034 99.7438C3.50426 98.222 4.18074 96.3525 5.39112 94.3003C11.5556 83.848 17.7201 73.3959 23.8845 62.9437C25.0313 60.9993 26.589 59.0083 28.4082 57.189C38.0018 47.5955 47.5955 38.0019 57.189 28.4082C59.0083 26.5891 60.9992 25.0314 62.9436 23.8846C73.3959 17.7201 83.848 11.5556 94.3002 5.39115ZM94.1911 6.24794C83.739 12.4124 73.2867 18.5769 62.8346 24.7414C61.0835 25.7741 59.2774 27.1833 57.6207 28.84C48.0271 38.4336 38.4336 48.0271 28.84 57.6208C27.1849 59.2758 25.7753 61.0814 24.7413 62.8347C18.5769 73.2868 12.4124 83.739 6.24791 94.1911C5.14719 96.0573 4.53759 97.7506 4.36268 99.1232C3.27918 107.633 2.19569 116.143 1.11219 124.653C0.913523 126.214 1.27807 127.315 1.94555 127.982C6.23332 132.27 10.5209 136.558 14.8087 140.845C15.4762 141.513 16.5771 141.877 18.1374 141.679C26.6476 140.595 35.1575 139.512 43.6677 138.428C45.0393 138.254 46.7325 137.644 48.5997 136.543C59.0519 130.378 69.504 124.214 79.9561 118.05C81.7074 117.017 83.5133 115.608 85.17 113.951C94.7637 104.357 104.357 94.7637 113.951 85.17C115.606 83.5151 117.016 81.7095 118.05 79.9561C124.214 69.504 130.378 59.0519 136.543 48.5997C137.643 46.7335 138.253 45.0402 138.428 43.6677C139.512 35.1576 140.595 26.6476 141.679 18.1374C141.877 16.5771 141.513 15.4762 140.845 14.8088C136.558 10.521 132.27 6.23336 127.982 1.94559C127.315 1.27811 126.214 0.91356 124.653 1.11223C116.143 2.19573 107.633 3.27922 99.1232 4.36272C97.7514 4.53746 96.0583 5.14674 94.1911 6.24794Z" fill="black" fill-opacity="0.99"/>
</g>
</g>
</g>
</g>
</g>
</g>
</g>
<defs>
<filter id="filter0_d_1480_1848" x="0" y="0" width="208" height="126" filterUnits="userSpaceOnUse" color-interpolation-filters="sRGB">
<feFlood flood-opacity="0" result="BackgroundImageFix"/>
<feColorMatrix in="SourceAlpha" type="matrix" values="0 0 0 0 0 0 0 0 0 0 0 0 0 0 0 0 0 0 127 0" result="hardAlpha"/>
<feOffset dy="4"/>
<feComposite in2="hardAlpha" operator="out"/>
<feColorMatrix type="matrix" values="0 0 0 0 1 0 0 0 0 1 0 0 0 0 1 0 0 0 0.47 0"/>
<feBlend mode="normal" in2="BackgroundImageFix" result="effect1_dropShadow_1480_1848"/>
<feBlend mode="normal" in="SourceGraphic" in2="effect1_dropShadow_1480_1848" result="shape"/>
</filter>
<filter id="filter1_d_1480_1848" x="0" y="0" width="208" height="126" filterUnits="userSpaceOnUse" color-interpolation-filters="sRGB">
<feFlood flood-opacity="0" result="BackgroundImageFix"/>
<feColorMatrix in="SourceAlpha" type="matrix" values="0 0 0 0 0 0 0 0 0 0 0 0 0 0 0 0 0 0 127 0" result="hardAlpha"/>
<feOffset dy="4"/>
<feComposite in2="hardAlpha" operator="out"/>
<feColorMatrix type="matrix" values="0 0 0 0 1 0 0 0 0 1 0 0 0 0 1 0 0 0 0.47 0"/>
<feBlend mode="normal" in2="BackgroundImageFix" result="effect1_dropShadow_1480_1848"/>
<feBlend mode="normal" in="SourceGraphic" in2="effect1_dropShadow_1480_1848" result="shape"/>
</filter>
<filter id="filter2_d_1480_1848" x="0" y="0" width="208" height="126" filterUnits="userSpaceOnUse" color-interpolation-filters="sRGB">
<feFlood flood-opacity="0" result="BackgroundImageFix"/>
<feColorMatrix in="SourceAlpha" type="matrix" values="0 0 0 0 0 0 0 0 0 0 0 0 0 0 0 0 0 0 127 0" result="hardAlpha"/>
<feOffset dy="4"/>
<feComposite in2="hardAlpha" operator="out"/>
<feColorMatrix type="matrix" values="0 0 0 0 1 0 0 0 0 1 0 0 0 0 1 0 0 0 0.47 0"/>
<feBlend mode="normal" in2="BackgroundImageFix" result="effect1_dropShadow_1480_1848"/>
<feBlend mode="normal" in="SourceGraphic" in2="effect1_dropShadow_1480_1848" result="shape"/>
</filter>
<clipPath id="clip0_1480_1848">
<rect width="475" height="475" fill="white"/>
</clipPath>
</defs>
</svg>
